<svg width="1900" height="1024" viewBox="0 0 1900 1024" fill="none" xmlns="http://www.w3.org/2000/svg">
<g clip-path="url(#clip0)">
<path d="M250.554 105.216L250.552 105.233V105.25C250.552 155.837 217.26 195.75 167.052 195.75H167.028L167.003 195.752C142.174 198.235 116.812 187.557 98.458 170.261C80.1025 152.963 68.8255 129.114 72.048 105.317L72.0554 105.262L72.0507 105.207C67.5818 53.0677 109.238 18.2499 159.552 18.2499H159.596L159.639 18.2424C179.442 14.7767 203.044 23.6893 221.282 39.9357C239.512 56.174 252.291 79.6584 250.554 105.216Z" fill="#AC5301" stroke="#4F1001"/>
<path d="M109.553 74.7499C109.553 78.198 107.712 82.8471 104.985 86.6509C103.627 88.5453 102.066 90.2047 100.437 91.386C98.8235 92.5562 97.1753 93.2342 95.6075 93.2496C93.4812 92.759 90.4676 91.0016 87.9715 88.4665C85.4565 85.9122 83.5527 82.6563 83.5527 79.2499C83.5527 72.3638 88.8875 66.8081 95.4494 66.7503C96.6163 67.251 98.0965 67.5828 99.6141 67.9014C99.7897 67.9383 99.966 67.9751 100.143 68.0119C101.559 68.3069 103.004 68.6079 104.338 69.0338C105.84 69.5132 107.145 70.1345 108.072 71.033C108.981 71.9145 109.553 73.088 109.553 74.7499Z" fill="#5C1E11" stroke="#4F1001"/>
<path d="M169.132 143.256L169.093 143.25H169.054C164.929 143.25 161.46 142.62 159.327 140.864C157.256 139.159 156.314 136.268 157.539 131.371L157.554 131.311V131.25C157.554 127.168 158.47 124.731 160.261 123.282C162.082 121.809 164.926 121.25 169.054 121.25C173.169 121.25 176.81 121.804 179.408 123.325C181.888 124.777 183.464 127.138 183.55 130.922C183.496 130.959 183.449 130.998 183.409 131.034C183.254 131.173 183.105 131.356 182.961 131.558C182.672 131.962 182.343 132.526 181.978 133.166C181.903 133.3 181.825 133.437 181.745 133.578C181.047 134.808 180.196 136.308 179.147 137.771C176.795 141.052 173.582 143.959 169.132 143.256Z" fill="#5C1E11" stroke="#4F1001"/>
<path d="M119.611 141.515L119.552 141.625V141.75C119.552 145.784 117.558 148.018 115.22 149.516C114.038 150.274 112.775 150.838 111.624 151.347C111.585 151.364 111.546 151.382 111.507 151.399C110.505 151.842 109.549 152.264 108.885 152.749C103.183 152.655 98.5525 147.787 98.5525 141.75V141.675L98.5304 141.603C98.0589 140.07 98.1225 138.781 98.5395 137.704C98.9585 136.622 99.7513 135.711 100.81 134.973C102.941 133.487 106.079 132.75 109.052 132.75C112.063 132.75 115.705 133.249 118.081 134.62C119.258 135.3 120.076 136.165 120.396 137.244C120.716 138.32 120.572 139.713 119.611 141.515Z" fill="#5C1E11" stroke="#4F1001"/>
<path d="M152.088 95.0642L152.053 95.1536V95.2499C152.053 98.1967 151.251 100.148 149.685 101.386C148.091 102.646 145.606 103.25 142.053 103.25C138.49 103.25 136.419 102.641 135.216 101.426C134.013 100.212 133.553 98.2682 133.553 95.2499V95.1114L133.481 94.9926C132.772 93.8103 132.498 92.7238 132.567 91.7381C132.636 90.7545 133.051 89.8226 133.806 88.9524C135.33 87.193 138.21 85.726 142.174 84.735C145.97 83.786 148.898 85.203 150.66 87.4347C152.445 89.6948 153.011 92.7584 152.088 95.0642Z" fill="#5C1E11" stroke="#4F1001"/>
<path d="M218.053 53.7499C218.053 55.7855 216.813 58.2947 214.946 60.3177C213.077 62.342 210.701 63.7499 208.553 63.7499C206.167 63.7499 205.037 63.6004 204.233 62.6723C203.812 62.1874 203.449 61.4528 203.097 60.3063C202.749 59.172 202.424 57.6789 202.053 55.7038C202.061 53.6087 202.609 52.5858 203.55 52.0218C204.576 51.406 206.185 51.2499 208.553 51.2499C209.509 51.2499 210.491 51.1919 211.434 51.1364C211.666 51.1226 211.897 51.1091 212.123 51.0966C213.282 51.0326 214.349 50.9961 215.262 51.0904C216.18 51.1853 216.869 51.4065 217.325 51.7971C217.759 52.1681 218.053 52.7531 218.053 53.7499Z" fill="#5C1E11" stroke="#4F1001"/>
<path d="M155.053 40.2499C155.053 42.8507 153.941 44.8324 152.213 46.1763C150.473 47.5298 148.088 48.2499 145.553 48.2499C143.019 48.2499 140.766 47.5309 139.156 46.1871C137.556 44.8523 136.553 42.8708 136.553 40.2499C136.553 35.0479 140.535 31.7499 145.553 31.7499C150.605 31.7499 155.053 35.0784 155.053 40.2499Z" fill="#5C1E11" stroke="#4F1001"/>
<path d="M227.053 135.75C227.053 137.626 225.958 139.497 224.244 140.918C222.534 142.336 220.269 143.25 218.053 143.25C216.947 143.25 216.145 143.023 215.554 142.657C214.966 142.293 214.548 141.767 214.249 141.099C213.636 139.729 213.553 137.837 213.553 135.75C213.553 133.928 214.634 132.685 216.265 131.615C217.08 131.08 218.009 130.605 218.969 130.132C219.127 130.054 219.286 129.976 219.445 129.898C220.203 129.527 220.971 129.151 221.683 128.751C223.815 128.781 225.109 129.553 225.898 130.726C226.729 131.96 227.053 133.714 227.053 135.75Z" fill="#5C1E11" stroke="#4F1001"/>
<path d="M250.554 621.216L250.552 621.233V621.25C250.552 671.837 217.26 711.75 167.052 711.75H167.028L167.003 711.752C142.174 714.235 116.812 703.557 98.458 686.261C80.1025 668.963 68.8255 645.114 72.048 621.317L72.0554 621.262L72.0507 621.207C67.5818 569.068 109.238 534.25 159.552 534.25H159.596L159.639 534.242C179.442 530.777 203.044 539.689 221.282 555.936C239.512 572.174 252.291 595.658 250.554 621.216Z" fill="#AC5301" stroke="#4F1001"/>
<path d="M109.553 590.75C109.553 594.198 107.712 598.847 104.985 602.651C103.627 604.545 102.066 606.205 100.437 607.386C98.8235 608.556 97.1753 609.234 95.6075 609.25C93.4812 608.759 90.4676 607.002 87.9715 604.466C85.4565 601.912 83.5527 598.656 83.5527 595.25C83.5527 588.364 88.8875 582.808 95.4494 582.75C96.6163 583.251 98.0965 583.583 99.6141 583.901C99.7897 583.938 99.966 583.975 100.143 584.012C101.559 584.307 103.004 584.608 104.338 585.034C105.84 585.513 107.145 586.134 108.072 587.033C108.981 587.915 109.553 589.088 109.553 590.75Z" fill="#5C1E11" stroke="#4F1001"/>
<path d="M169.132 659.256L169.093 659.25H169.054C164.929 659.25 161.46 658.62 159.327 656.864C157.256 655.159 156.314 652.268 157.539 647.371L157.554 647.311V647.25C157.554 643.168 158.47 640.731 160.261 639.282C162.082 637.809 164.926 637.25 169.054 637.25C173.169 637.25 176.81 637.804 179.408 639.325C181.888 640.777 183.464 643.138 183.55 646.922C183.496 646.959 183.449 646.998 183.409 647.034C183.254 647.173 183.105 647.356 182.961 647.558C182.672 647.962 182.343 648.526 181.978 649.166C181.903 649.3 181.825 649.437 181.745 649.578C181.047 650.808 180.196 652.308 179.147 653.771C176.795 657.052 173.582 659.959 169.132 659.256Z" fill="#5C1E11" stroke="#4F1001"/>
<path d="M119.611 657.515L119.552 657.625V657.75C119.552 661.784 117.558 664.018 115.22 665.516C114.038 666.274 112.775 666.838 111.624 667.347C111.585 667.364 111.546 667.382 111.507 667.399C110.505 667.842 109.549 668.264 108.885 668.749C103.183 668.655 98.5525 663.787 98.5525 657.75V657.675L98.5304 657.603C98.0589 656.07 98.1225 654.781 98.5395 653.704C98.9585 652.622 99.7513 651.711 100.81 650.973C102.941 649.487 106.079 648.75 109.052 648.75C112.063 648.75 115.705 649.249 118.081 650.62C119.258 651.3 120.076 652.165 120.396 653.244C120.716 654.32 120.572 655.713 119.611 657.515Z" fill="#5C1E11" stroke="#4F1001"/>
<path d="M152.088 611.064L152.053 611.154V611.25C152.053 614.197 151.251 616.148 149.685 617.386C148.091 618.646 145.606 619.25 142.053 619.25C138.49 619.25 136.419 618.641 135.216 617.426C134.013 616.212 133.553 614.268 133.553 611.25V611.111L133.481 610.993C132.772 609.81 132.498 608.724 132.567 607.738C132.636 606.754 133.051 605.823 133.806 604.952C135.33 603.193 138.21 601.726 142.174 600.735C145.97 599.786 148.898 601.203 150.66 603.435C152.445 605.695 153.011 608.758 152.088 611.064Z" fill="#5C1E11" stroke="#4F1001"/>
<path d="M218.053 569.75C218.053 571.785 216.813 574.295 214.946 576.318C213.077 578.342 210.701 579.75 208.553 579.75C206.167 579.75 205.037 579.6 204.233 578.672C203.812 578.187 203.449 577.453 203.097 576.306C202.749 575.172 202.424 573.679 202.053 571.704C202.061 569.609 202.609 568.586 203.55 568.022C204.576 567.406 206.185 567.25 208.553 567.25C209.509 567.25 210.491 567.192 211.434 567.136C211.666 567.123 211.897 567.109 212.123 567.097C213.282 567.033 214.349 566.996 215.262 567.09C216.18 567.185 216.869 567.406 217.325 567.797C217.759 568.168 218.053 568.753 218.053 569.75Z" fill="#5C1E11" stroke="#4F1001"/>
<path d="M155.053 556.25C155.053 558.851 153.941 560.832 152.213 562.176C150.473 563.53 148.088 564.25 145.553 564.25C143.019 564.25 140.766 563.531 139.156 562.187C137.556 560.852 136.553 558.871 136.553 556.25C136.553 551.048 140.535 547.75 145.553 547.75C150.605 547.75 155.053 551.078 155.053 556.25Z" fill="#5C1E11" stroke="#4F1001"/>
<path d="M227.053 651.75C227.053 653.626 225.958 655.497 224.244 656.918C222.534 658.336 220.269 659.25 218.053 659.25C216.947 659.25 216.145 659.023 215.554 658.657C214.966 658.293 214.548 657.767 214.249 657.099C213.636 655.729 213.553 653.837 213.553 651.75C213.553 649.928 214.634 648.685 216.265 647.615C217.08 647.08 218.009 646.605 218.969 646.132C219.127 646.054 219.286 645.976 219.445 645.898C220.203 645.527 220.971 645.151 221.683 644.751C223.815 644.781 225.109 645.553 225.898 646.726C226.729 647.96 227.053 649.714 227.053 651.75Z" fill="#5C1E11" stroke="#4F1001"/>
<path d="M432.554 363.216L432.552 363.233V363.25C432.552 413.837 399.26 453.75 349.052 453.75H349.028L349.003 453.752C324.174 456.235 298.812 445.557 280.458 428.261C262.103 410.963 250.825 387.114 254.048 363.317L254.055 363.262L254.051 363.207C249.582 311.068 291.238 276.25 341.552 276.25H341.596L341.639 276.242C361.442 272.777 385.044 281.689 403.282 297.936C421.512 314.174 434.291 337.658 432.554 363.216Z" fill="#AC5301" stroke="#4F1001"/>
<path d="M291.553 332.75C291.553 336.198 289.712 340.847 286.985 344.651C285.627 346.545 284.066 348.205 282.437 349.386C280.823 350.556 279.175 351.234 277.607 351.25C275.481 350.759 272.468 349.002 269.972 346.466C267.457 343.912 265.553 340.656 265.553 337.25C265.553 330.364 270.888 324.808 277.449 324.75C278.616 325.251 280.096 325.583 281.614 325.901C281.79 325.938 281.966 325.975 282.143 326.012C283.559 326.307 285.004 326.608 286.338 327.034C287.84 327.513 289.145 328.134 290.072 329.033C290.981 329.915 291.553 331.088 291.553 332.75Z" fill="#5C1E11" stroke="#4F1001"/>
<path d="M351.132 401.256L351.093 401.25H351.054C346.929 401.25 343.46 400.62 341.327 398.864C339.256 397.159 338.314 394.268 339.539 389.371L339.554 389.311V389.25C339.554 385.168 340.47 382.731 342.261 381.282C344.082 379.809 346.926 379.25 351.054 379.25C355.169 379.25 358.81 379.804 361.408 381.325C363.888 382.777 365.464 385.138 365.55 388.922C365.496 388.959 365.449 388.998 365.409 389.034C365.254 389.173 365.105 389.356 364.961 389.558C364.672 389.962 364.343 390.526 363.978 391.166C363.903 391.3 363.825 391.437 363.745 391.578C363.047 392.808 362.196 394.308 361.147 395.771C358.795 399.052 355.582 401.959 351.132 401.256Z" fill="#5C1E11" stroke="#4F1001"/>
<path d="M301.611 399.515L301.552 399.625V399.75C301.552 403.784 299.558 406.018 297.22 407.516C296.038 408.274 294.775 408.838 293.624 409.347C293.585 409.364 293.546 409.382 293.507 409.399C292.505 409.842 291.549 410.264 290.885 410.749C285.183 410.655 280.552 405.787 280.552 399.75V399.675L280.53 399.603C280.059 398.07 280.123 396.781 280.54 395.704C280.958 394.622 281.751 393.711 282.81 392.973C284.941 391.487 288.079 390.75 291.052 390.75C294.063 390.75 297.705 391.249 300.081 392.62C301.258 393.3 302.076 394.165 302.396 395.244C302.716 396.32 302.572 397.713 301.611 399.515Z" fill="#5C1E11" stroke="#4F1001"/>
<path d="M334.088 353.064L334.053 353.154V353.25C334.053 356.197 333.251 358.148 331.685 359.386C330.091 360.646 327.606 361.25 324.053 361.25C320.49 361.25 318.419 360.641 317.216 359.426C316.013 358.212 315.553 356.268 315.553 353.25V353.111L315.481 352.993C314.772 351.81 314.498 350.724 314.567 349.738C314.636 348.754 315.051 347.823 315.806 346.952C317.33 345.193 320.21 343.726 324.174 342.735C327.97 341.786 330.898 343.203 332.66 345.435C334.445 347.695 335.011 350.758 334.088 353.064Z" fill="#5C1E11" stroke="#4F1001"/>
<path d="M400.053 311.75C400.053 313.785 398.813 316.295 396.946 318.318C395.077 320.342 392.701 321.75 390.553 321.75C388.167 321.75 387.037 321.6 386.233 320.672C385.812 320.187 385.449 319.453 385.097 318.306C384.749 317.172 384.424 315.679 384.053 313.704C384.061 311.609 384.609 310.586 385.55 310.022C386.576 309.406 388.185 309.25 390.553 309.25C391.509 309.25 392.491 309.192 393.434 309.136C393.666 309.123 393.897 309.109 394.123 309.097C395.282 309.033 396.349 308.996 397.262 309.09C398.18 309.185 398.869 309.406 399.325 309.797C399.759 310.168 400.053 310.753 400.053 311.75Z" fill="#5C1E11" stroke="#4F1001"/>
<path d="M337.053 298.25C337.053 300.851 335.941 302.832 334.213 304.176C332.473 305.53 330.088 306.25 327.553 306.25C325.019 306.25 322.766 305.531 321.156 304.187C319.556 302.852 318.553 300.871 318.553 298.25C318.553 293.048 322.535 289.75 327.553 289.75C332.605 289.75 337.053 293.078 337.053 298.25Z" fill="#5C1E11" stroke="#4F1001"/>
<path d="M409.053 393.75C409.053 395.626 407.958 397.497 406.244 398.918C404.534 400.336 402.269 401.25 400.053 401.25C398.947 401.25 398.145 401.023 397.554 400.657C396.966 400.293 396.548 399.767 396.249 399.099C395.636 397.729 395.553 395.837 395.553 393.75C395.553 391.928 396.634 390.685 398.265 389.615C399.08 389.08 400.009 388.605 400.969 388.132C401.127 388.054 401.286 387.976 401.445 387.898C402.203 387.527 402.971 387.151 403.683 386.751C405.815 386.781 407.109 387.553 407.898 388.726C408.729 389.96 409.053 391.714 409.053 393.75Z" fill="#5C1E11" stroke="#4F1001"/>
<path d="M432.554 879.216L432.552 879.233V879.25C432.552 929.837 399.26 969.75 349.052 969.75H349.028L349.003 969.752C324.174 972.235 298.812 961.557 280.458 944.261C262.103 926.963 250.825 903.114 254.048 879.317L254.055 879.262L254.051 879.207C249.582 827.068 291.238 792.25 341.552 792.25H341.596L341.639 792.242C361.442 788.777 385.044 797.689 403.282 813.936C421.512 830.174 434.291 853.658 432.554 879.216Z" fill="#AC5301" stroke="#4F1001"/>
<path d="M291.553 848.75C291.553 852.198 289.712 856.847 286.985 860.651C285.627 862.545 284.066 864.205 282.437 865.386C280.823 866.556 279.175 867.234 277.607 867.25C275.481 866.759 272.468 865.002 269.972 862.466C267.457 859.912 265.553 856.656 265.553 853.25C265.553 846.364 270.888 840.808 277.449 840.75C278.616 841.251 280.096 841.583 281.614 841.901C281.79 841.938 281.966 841.975 282.143 842.012C283.559 842.307 285.004 842.608 286.338 843.034C287.84 843.513 289.145 844.134 290.072 845.033C290.981 845.915 291.553 847.088 291.553 848.75Z" fill="#5C1E11" stroke="#4F1001"/>
<path d="M351.132 917.256L351.093 917.25H351.054C346.929 917.25 343.46 916.62 341.327 914.864C339.256 913.159 338.314 910.268 339.539 905.371L339.554 905.311V905.25C339.554 901.168 340.47 898.731 342.261 897.282C344.082 895.809 346.926 895.25 351.054 895.25C355.169 895.25 358.81 895.804 361.408 897.325C363.888 898.777 365.464 901.138 365.55 904.922C365.496 904.959 365.449 904.998 365.409 905.034C365.254 905.173 365.105 905.356 364.961 905.558C364.672 905.962 364.343 906.526 363.978 907.166C363.903 907.3 363.825 907.437 363.745 907.578C363.047 908.808 362.196 910.308 361.147 911.771C358.795 915.052 355.582 917.959 351.132 917.256Z" fill="#5C1E11" stroke="#4F1001"/>
<path d="M301.611 915.515L301.552 915.625V915.75C301.552 919.784 299.558 922.018 297.22 923.516C296.038 924.274 294.775 924.838 293.624 925.347C293.585 925.364 293.546 925.382 293.507 925.399C292.505 925.842 291.549 926.264 290.885 926.749C285.183 926.655 280.552 921.787 280.552 915.75V915.675L280.53 915.603C280.059 914.07 280.123 912.781 280.54 911.704C280.958 910.622 281.751 909.711 282.81 908.973C284.941 907.487 288.079 906.75 291.052 906.75C294.063 906.75 297.705 907.249 300.081 908.62C301.258 909.3 302.076 910.165 302.396 911.244C302.716 912.32 302.572 913.713 301.611 915.515Z" fill="#5C1E11" stroke="#4F1001"/>
<path d="M334.088 869.064L334.053 869.154V869.25C334.053 872.197 333.251 874.148 331.685 875.386C330.091 876.646 327.606 877.25 324.053 877.25C320.49 877.25 318.419 876.641 317.216 875.426C316.013 874.212 315.553 872.268 315.553 869.25V869.111L315.481 868.993C314.772 867.81 314.498 866.724 314.567 865.738C314.636 864.754 315.051 863.823 315.806 862.952C317.33 861.193 320.21 859.726 324.174 858.735C327.97 857.786 330.898 859.203 332.66 861.435C334.445 863.695 335.011 866.758 334.088 869.064Z" fill="#5C1E11" stroke="#4F1001"/>
<path d="M400.053 827.75C400.053 829.785 398.813 832.295 396.946 834.318C395.077 836.342 392.701 837.75 390.553 837.75C388.167 837.75 387.037 837.6 386.233 836.672C385.812 836.187 385.449 835.453 385.097 834.306C384.749 833.172 384.424 831.679 384.053 829.704C384.061 827.609 384.609 826.586 385.55 826.022C386.576 825.406 388.185 825.25 390.553 825.25C391.509 825.25 392.491 825.192 393.434 825.136C393.666 825.123 393.897 825.109 394.123 825.097C395.282 825.033 396.349 824.996 397.262 825.09C398.18 825.185 398.869 825.406 399.325 825.797C399.759 826.168 400.053 826.753 400.053 827.75Z" fill="#5C1E11" stroke="#4F1001"/>
<path d="M337.053 814.25C337.053 816.851 335.941 818.832 334.213 820.176C332.473 821.53 330.088 822.25 327.553 822.25C325.019 822.25 322.766 821.531 321.156 820.187C319.556 818.852 318.553 816.871 318.553 814.25C318.553 809.048 322.535 805.75 327.553 805.75C332.605 805.75 337.053 809.078 337.053 814.25Z" fill="#5C1E11" stroke="#4F1001"/>
<path d="M409.053 909.75C409.053 911.626 407.958 913.497 406.244 914.918C404.534 916.336 402.269 917.25 400.053 917.25C398.947 917.25 398.145 917.023 397.554 916.657C396.966 916.293 396.548 915.767 396.249 915.099C395.636 913.729 395.553 911.837 395.553 909.75C395.553 907.928 396.634 906.685 398.265 905.615C399.08 905.08 400.009 904.605 400.969 904.132C401.127 904.054 401.286 903.976 401.445 903.898C402.203 903.527 402.971 903.151 403.683 902.751C405.815 902.781 407.109 903.553 407.898 904.726C408.729 905.96 409.053 907.714 409.053 909.75Z" fill="#5C1E11" stroke="#4F1001"/>
<path d="M142.554 363.216L142.552 363.233V363.25C142.552 413.837 109.26 453.75 59.0525 453.75H59.0275L59.0027 453.752C34.1744 456.235 8.81212 445.557 -9.54203 428.261C-27.8975 410.963 -39.1745 387.114 -35.952 363.317L-35.9446 363.262L-35.9493 363.207C-40.4182 311.068 1.23783 276.25 51.5525 276.25H51.5959L51.6387 276.242C71.4424 272.777 95.0441 281.689 113.282 297.936C131.512 314.174 144.291 337.658 142.554 363.216Z" fill="#AC5301" stroke="#4F1001"/>
<path d="M1.55273 332.75C1.55273 336.198 -0.287634 340.847 -3.01479 344.651C-4.37297 346.545 -5.93354 348.205 -7.56271 349.386C-9.17653 350.556 -10.8247 351.234 -12.3925 351.25C-14.5188 350.759 -17.5324 349.002 -20.0285 346.466C-22.5435 343.912 -24.4473 340.656 -24.4473 337.25C-24.4473 330.364 -19.1125 324.808 -12.5506 324.75C-11.3837 325.251 -9.90352 325.583 -8.38595 325.901C-8.21031 325.938 -8.03397 325.975 -7.85717 326.012C-6.44089 326.307 -4.99602 326.608 -3.66181 327.034C-2.16008 327.513 -0.854883 328.134 0.071867 329.033C0.98098 329.915 1.55273 331.088 1.55273 332.75Z" fill="#5C1E11" stroke="#4F1001"/>
<path d="M61.1315 401.256L61.0928 401.25H61.0536C56.9287 401.25 53.4602 400.62 51.327 398.864C49.2559 397.159 48.3139 394.268 49.5386 389.371L49.5536 389.311V389.25C49.5536 385.168 50.4702 382.731 52.2615 381.282C54.082 379.809 56.926 379.25 61.0536 379.25C65.1695 379.25 68.8099 379.804 71.4075 381.325C73.8878 382.777 75.4642 385.138 75.5499 388.922C75.4965 388.959 75.4492 388.998 75.4086 389.034C75.2545 389.173 75.1051 389.356 74.9612 389.558C74.6722 389.962 74.3433 390.526 73.9785 391.166C73.9026 391.3 73.8248 391.437 73.745 391.578C73.0472 392.808 72.1961 394.308 71.1472 395.771C68.7946 399.052 65.5821 401.959 61.1315 401.256Z" fill="#5C1E11" stroke="#4F1001"/>
<path d="M11.6113 399.515L11.5525 399.625V399.75C11.5525 403.784 9.55761 406.018 7.22023 407.516C6.03836 408.274 4.77528 408.838 3.62381 409.347C3.58493 409.364 3.54611 409.382 3.50736 409.399C2.50461 409.842 1.54878 410.264 0.885436 410.749C-4.81653 410.655 -9.44754 405.787 -9.44754 399.75V399.675L-9.46965 399.603C-9.94114 398.07 -9.87748 396.781 -9.46048 395.704C-9.04153 394.622 -8.24867 393.711 -7.18961 392.973C-5.05934 391.487 -1.9206 390.75 1.05246 390.75C4.06281 390.75 7.70535 391.249 10.0807 392.62C11.2581 393.3 12.0756 394.165 12.3962 395.244C12.7161 396.32 12.5721 397.713 11.6113 399.515Z" fill="#5C1E11" stroke="#4F1001"/>
<path d="M44.0885 353.064L44.0527 353.154V353.25C44.0527 356.197 43.2511 358.148 41.6851 359.386C40.0913 360.646 37.6064 361.25 34.0528 361.25C30.4895 361.25 28.4192 360.641 27.2156 359.426C26.0127 358.212 25.5527 356.268 25.5527 353.25V353.111L25.4815 352.993C24.772 351.81 24.4977 350.724 24.5671 349.738C24.6363 348.754 25.0513 347.823 25.8055 346.952C27.3303 345.193 30.2101 343.726 34.174 342.735C37.9699 341.786 40.8984 343.203 42.6603 345.435C44.4446 347.695 45.0108 350.758 44.0885 353.064Z" fill="#5C1E11" stroke="#4F1001"/>
<path d="M110.053 311.75C110.053 313.785 108.813 316.295 106.946 318.318C105.077 320.342 102.701 321.75 100.553 321.75C98.1671 321.75 97.0374 321.6 96.2326 320.672C95.812 320.187 95.4491 319.453 95.0971 318.306C94.7489 317.172 94.4238 315.679 94.0528 313.704C94.0607 311.609 94.6092 310.586 95.5495 310.022C96.5762 309.406 98.1853 309.25 100.553 309.25C101.509 309.25 102.491 309.192 103.434 309.136C103.666 309.123 103.897 309.109 104.123 309.097C105.282 309.033 106.349 308.996 107.262 309.09C108.18 309.185 108.869 309.406 109.325 309.797C109.759 310.168 110.053 310.753 110.053 311.75Z" fill="#5C1E11" stroke="#4F1001"/>
<path d="M47.0527 298.25C47.0527 300.851 45.9407 302.832 44.2132 304.176C42.4734 305.53 40.0878 306.25 37.5527 306.25C35.0192 306.25 32.7659 305.531 31.1556 304.187C29.5561 302.852 28.5527 300.871 28.5527 298.25C28.5527 293.048 32.5352 289.75 37.5527 289.75C42.6051 289.75 47.0527 293.078 47.0527 298.25Z" fill="#5C1E11" stroke="#4F1001"/>
<path d="M119.053 393.75C119.053 395.626 117.958 397.497 116.244 398.918C114.534 400.336 112.269 401.25 110.053 401.25C108.947 401.25 108.145 401.023 107.554 400.657C106.966 400.293 106.548 399.767 106.249 399.099C105.636 397.729 105.553 395.837 105.553 393.75C105.553 391.928 106.634 390.685 108.265 389.615C109.08 389.08 110.009 388.605 110.969 388.132C111.127 388.054 111.286 387.976 111.445 387.898C112.203 387.527 112.971 387.151 113.683 386.751C115.815 386.781 117.109 387.553 117.898 388.726C118.729 389.96 119.053 391.714 119.053 393.75Z" fill="#5C1E11" stroke="#4F1001"/>
<path d="M142.554 879.216L142.552 879.233V879.25C142.552 929.837 109.26 969.75 59.0525 969.75H59.0275L59.0027 969.752C34.1744 972.235 8.81212 961.557 -9.54203 944.261C-27.8975 926.963 -39.1745 903.114 -35.952 879.317L-35.9446 879.262L-35.9493 879.207C-40.4182 827.068 1.23783 792.25 51.5525 792.25H51.5959L51.6387 792.242C71.4424 788.777 95.0441 797.689 113.282 813.936C131.512 830.174 144.291 853.658 142.554 879.216Z" fill="#AC5301" stroke="#4F1001"/>
<path d="M1.55273 848.75C1.55273 852.198 -0.287634 856.847 -3.01479 860.651C-4.37297 862.545 -5.93354 864.205 -7.56271 865.386C-9.17653 866.556 -10.8247 867.234 -12.3925 867.25C-14.5188 866.759 -17.5324 865.002 -20.0285 862.466C-22.5435 859.912 -24.4473 856.656 -24.4473 853.25C-24.4473 846.364 -19.1125 840.808 -12.5506 840.75C-11.3837 841.251 -9.90352 841.583 -8.38595 841.901C-8.21031 841.938 -8.03397 841.975 -7.85717 842.012C-6.44089 842.307 -4.99602 842.608 -3.66181 843.034C-2.16008 843.513 -0.854883 844.134 0.071867 845.033C0.98098 845.915 1.55273 847.088 1.55273 848.75Z" fill="#5C1E11" stroke="#4F1001"/>
<path d="M61.1315 917.256L61.0928 917.25H61.0536C56.9287 917.25 53.4602 916.62 51.327 914.864C49.2559 913.159 48.3139 910.268 49.5386 905.371L49.5536 905.311V905.25C49.5536 901.168 50.4702 898.731 52.2615 897.282C54.082 895.809 56.926 895.25 61.0536 895.25C65.1695 895.25 68.8099 895.804 71.4075 897.325C73.8878 898.777 75.4642 901.138 75.5499 904.922C75.4965 904.959 75.4492 904.998 75.4086 905.034C75.2545 905.173 75.1051 905.356 74.9612 905.558C74.6722 905.962 74.3433 906.526 73.9785 907.166C73.9026 907.3 73.8248 907.437 73.745 907.578C73.0472 908.808 72.1961 910.308 71.1472 911.771C68.7946 915.052 65.5821 917.959 61.1315 917.256Z" fill="#5C1E11" stroke="#4F1001"/>
<path d="M11.6113 915.515L11.5525 915.625V915.75C11.5525 919.784 9.55761 922.018 7.22023 923.516C6.03836 924.274 4.77528 924.838 3.62381 925.347C3.58493 925.364 3.54611 925.382 3.50736 925.399C2.50461 925.842 1.54878 926.264 0.885436 926.749C-4.81653 926.655 -9.44754 921.787 -9.44754 915.75V915.675L-9.46965 915.603C-9.94114 914.07 -9.87748 912.781 -9.46048 911.704C-9.04153 910.622 -8.24867 909.711 -7.18961 908.973C-5.05934 907.487 -1.9206 906.75 1.05246 906.75C4.06281 906.75 7.70535 907.249 10.0807 908.62C11.2581 909.3 12.0756 910.165 12.3962 911.244C12.7161 912.32 12.5721 913.713 11.6113 915.515Z" fill="#5C1E11" stroke="#4F1001"/>
<path d="M44.0885 869.064L44.0527 869.154V869.25C44.0527 872.197 43.2511 874.148 41.6851 875.386C40.0913 876.646 37.6064 877.25 34.0528 877.25C30.4895 877.25 28.4192 876.641 27.2156 875.426C26.0127 874.212 25.5527 872.268 25.5527 869.25V869.111L25.4815 868.993C24.772 867.81 24.4977 866.724 24.5671 865.738C24.6363 864.754 25.0513 863.823 25.8055 862.952C27.3303 861.193 30.2101 859.726 34.174 858.735C37.9699 857.786 40.8984 859.203 42.6603 861.435C44.4446 863.695 45.0108 866.758 44.0885 869.064Z" fill="#5C1E11" stroke="#4F1001"/>
<path d="M110.053 827.75C110.053 829.785 108.813 832.295 106.946 834.318C105.077 836.342 102.701 837.75 100.553 837.75C98.1671 837.75 97.0374 837.6 96.2326 836.672C95.812 836.187 95.4491 835.453 95.0971 834.306C94.7489 833.172 94.4238 831.679 94.0528 829.704C94.0607 827.609 94.6092 826.586 95.5495 826.022C96.5762 825.406 98.1853 825.25 100.553 825.25C101.509 825.25 102.491 825.192 103.434 825.136C103.666 825.123 103.897 825.109 104.123 825.097C105.282 825.033 106.349 824.996 107.262 825.09C108.18 825.185 108.869 825.406 109.325 825.797C109.759 826.168 110.053 826.753 110.053 827.75Z" fill="#5C1E11" stroke="#4F1001"/>
<path d="M47.0527 814.25C47.0527 816.851 45.9407 818.832 44.2132 820.176C42.4734 821.53 40.0878 822.25 37.5527 822.25C35.0192 822.25 32.7659 821.531 31.1556 820.187C29.5561 818.852 28.5527 816.871 28.5527 814.25C28.5527 809.048 32.5352 805.75 37.5527 805.75C42.6051 805.75 47.0527 809.078 47.0527 814.25Z" fill="#5C1E11" stroke="#4F1001"/>
<path d="M119.053 909.75C119.053 911.626 117.958 913.497 116.244 914.918C114.534 916.336 112.269 917.25 110.053 917.25C108.947 917.25 108.145 917.023 107.554 916.657C106.966 916.293 106.548 915.767 106.249 915.099C105.636 913.729 105.553 911.837 105.553 909.75C105.553 907.928 106.634 906.685 108.265 905.615C109.08 905.08 110.009 904.605 110.969 904.132C111.127 904.054 111.286 903.976 111.445 903.898C112.203 903.527 112.971 903.151 113.683 902.751C115.815 902.781 117.109 903.553 117.898 904.726C118.729 905.96 119.053 907.714 119.053 909.75Z" fill="#5C1E11" stroke="#4F1001"/>
<path d="M647.554 102.216L647.552 102.233V102.25C647.552 152.837 614.26 192.75 564.052 192.75H564.028L564.003 192.752C539.174 195.235 513.812 184.557 495.458 167.261C477.103 149.963 465.825 126.114 469.048 102.317L469.055 102.262L469.051 102.207C464.582 50.0677 506.238 15.2499 556.552 15.2499H556.596L556.639 15.2424C576.442 11.7767 600.044 20.6893 618.282 36.9357C636.512 53.174 649.291 76.6584 647.554 102.216Z" fill="#AC5301" stroke="#4F1001"/>
<path d="M506.553 71.7499C506.553 75.198 504.712 79.8471 501.985 83.6509C500.627 85.5453 499.066 87.2047 497.437 88.386C495.823 89.5562 494.175 90.2342 492.607 90.2496C490.481 89.759 487.468 88.0016 484.972 85.4665C482.457 82.9122 480.553 79.6563 480.553 76.2499C480.553 69.3638 485.888 63.8081 492.449 63.7503C493.616 64.251 495.096 64.5828 496.614 64.9014C496.79 64.9383 496.966 64.9751 497.143 65.0119C498.559 65.3069 500.004 65.6079 501.338 66.0338C502.84 66.5132 504.145 67.1345 505.072 68.033C505.981 68.9145 506.553 70.088 506.553 71.7499Z" fill="#5C1E11" stroke="#4F1001"/>
<path d="M566.132 140.256L566.093 140.25H566.054C561.929 140.25 558.46 139.62 556.327 137.864C554.256 136.159 553.314 133.268 554.539 128.371L554.554 128.311V128.25C554.554 124.168 555.47 121.731 557.261 120.282C559.082 118.809 561.926 118.25 566.054 118.25C570.169 118.25 573.81 118.804 576.408 120.325C578.888 121.777 580.464 124.138 580.55 127.922C580.496 127.959 580.449 127.998 580.409 128.034C580.254 128.173 580.105 128.356 579.961 128.558C579.672 128.962 579.343 129.526 578.978 130.166C578.903 130.3 578.825 130.437 578.745 130.578C578.047 131.808 577.196 133.308 576.147 134.771C573.795 138.052 570.582 140.959 566.132 140.256Z" fill="#5C1E11" stroke="#4F1001"/>
<path d="M516.611 138.515L516.552 138.625V138.75C516.552 142.784 514.558 145.018 512.22 146.516C511.038 147.274 509.775 147.838 508.624 148.347C508.585 148.364 508.546 148.382 508.507 148.399C507.505 148.842 506.549 149.264 505.885 149.749C500.183 149.655 495.552 144.787 495.552 138.75V138.675L495.53 138.603C495.059 137.07 495.123 135.781 495.54 134.704C495.958 133.622 496.751 132.711 497.81 131.973C499.941 130.487 503.079 129.75 506.052 129.75C509.063 129.75 512.705 130.249 515.081 131.62C516.258 132.3 517.076 133.165 517.396 134.244C517.716 135.32 517.572 136.713 516.611 138.515Z" fill="#5C1E11" stroke="#4F1001"/>
<path d="M549.088 92.0642L549.053 92.1536V92.2499C549.053 95.1967 548.251 97.1479 546.685 98.3858C545.091 99.6457 542.606 100.25 539.053 100.25C535.49 100.25 533.419 99.6414 532.216 98.4262C531.013 97.2117 530.553 95.2682 530.553 92.2499V92.1114L530.481 91.9926C529.772 90.8103 529.498 89.7238 529.567 88.7381C529.636 87.7545 530.051 86.8226 530.806 85.9524C532.33 84.193 535.21 82.726 539.174 81.735C542.97 80.786 545.898 82.203 547.66 84.4347C549.445 86.6948 550.011 89.7584 549.088 92.0642Z" fill="#5C1E11" stroke="#4F1001"/>
<path d="M615.053 50.7499C615.053 52.7855 613.813 55.2947 611.946 57.3177C610.077 59.342 607.701 60.7499 605.553 60.7499C603.167 60.7499 602.037 60.6004 601.233 59.6723C600.812 59.1874 600.449 58.4528 600.097 57.3063C599.749 56.172 599.424 54.6789 599.053 52.7038C599.061 50.6087 599.609 49.5858 600.55 49.0218C601.576 48.406 603.185 48.2499 605.553 48.2499C606.509 48.2499 607.491 48.1919 608.434 48.1364C608.666 48.1226 608.897 48.1091 609.123 48.0966C610.282 48.0326 611.349 47.9961 612.262 48.0904C613.18 48.1853 613.869 48.4065 614.325 48.7971C614.759 49.1681 615.053 49.7531 615.053 50.7499Z" fill="#5C1E11" stroke="#4F1001"/>
<path d="M552.053 37.2499C552.053 39.8507 550.941 41.8324 549.213 43.1763C547.473 44.5298 545.088 45.2499 542.553 45.2499C540.019 45.2499 537.766 44.5309 536.156 43.1871C534.556 41.8523 533.553 39.8708 533.553 37.2499C533.553 32.0479 537.535 28.7499 542.553 28.7499C547.605 28.7499 552.053 32.0784 552.053 37.2499Z" fill="#5C1E11" stroke="#4F1001"/>
<path d="M624.053 132.75C624.053 134.626 622.958 136.497 621.244 137.918C619.534 139.336 617.269 140.25 615.053 140.25C613.947 140.25 613.145 140.023 612.554 139.657C611.966 139.293 611.548 138.767 611.249 138.099C610.636 136.729 610.553 134.837 610.553 132.75C610.553 130.928 611.634 129.685 613.265 128.615C614.08 128.08 615.009 127.605 615.969 127.132C616.127 127.054 616.286 126.976 616.445 126.898C617.203 126.527 617.971 126.151 618.683 125.751C620.815 125.781 622.109 126.553 622.898 127.726C623.729 128.96 624.053 130.714 624.053 132.75Z" fill="#5C1E11" stroke="#4F1001"/>
<path d="M647.554 618.216L647.552 618.233V618.25C647.552 668.837 614.26 708.75 564.052 708.75H564.028L564.003 708.752C539.174 711.235 513.812 700.557 495.458 683.261C477.103 665.963 465.825 642.114 469.048 618.317L469.055 618.262L469.051 618.207C464.582 566.068 506.238 531.25 556.552 531.25H556.596L556.639 531.242C576.442 527.777 600.044 536.689 618.282 552.936C636.512 569.174 649.291 592.658 647.554 618.216Z" fill="#AC5301" stroke="#4F1001"/>
<path d="M506.553 587.75C506.553 591.198 504.712 595.847 501.985 599.651C500.627 601.545 499.066 603.205 497.437 604.386C495.823 605.556 494.175 606.234 492.607 606.25C490.481 605.759 487.468 604.002 484.972 601.466C482.457 598.912 480.553 595.656 480.553 592.25C480.553 585.364 485.888 579.808 492.449 579.75C493.616 580.251 495.096 580.583 496.614 580.901C496.79 580.938 496.966 580.975 497.143 581.012C498.559 581.307 500.004 581.608 501.338 582.034C502.84 582.513 504.145 583.134 505.072 584.033C505.981 584.915 506.553 586.088 506.553 587.75Z" fill="#5C1E11" stroke="#4F1001"/>
<path d="M566.132 656.256L566.093 656.25H566.054C561.929 656.25 558.46 655.62 556.327 653.864C554.256 652.159 553.314 649.268 554.539 644.371L554.554 644.311V644.25C554.554 640.168 555.47 637.731 557.261 636.282C559.082 634.809 561.926 634.25 566.054 634.25C570.169 634.25 573.81 634.804 576.408 636.325C578.888 637.777 580.464 640.138 580.55 643.922C580.496 643.959 580.449 643.998 580.409 644.034C580.254 644.173 580.105 644.356 579.961 644.558C579.672 644.962 579.343 645.526 578.978 646.166C578.903 646.3 578.825 646.437 578.745 646.578C578.047 647.808 577.196 649.308 576.147 650.771C573.795 654.052 570.582 656.959 566.132 656.256Z" fill="#5C1E11" stroke="#4F1001"/>
<path d="M516.611 654.515L516.552 654.625V654.75C516.552 658.784 514.558 661.018 512.22 662.516C511.038 663.274 509.775 663.838 508.624 664.347C508.585 664.364 508.546 664.382 508.507 664.399C507.505 664.842 506.549 665.264 505.885 665.749C500.183 665.655 495.552 660.787 495.552 654.75V654.675L495.53 654.603C495.059 653.07 495.123 651.781 495.54 650.704C495.958 649.622 496.751 648.711 497.81 647.973C499.941 646.487 503.079 645.75 506.052 645.75C509.063 645.75 512.705 646.249 515.081 647.62C516.258 648.3 517.076 649.165 517.396 650.244C517.716 651.32 517.572 652.713 516.611 654.515Z" fill="#5C1E11" stroke="#4F1001"/>
<path d="M549.088 608.064L549.053 608.154V608.25C549.053 611.197 548.251 613.148 546.685 614.386C545.091 615.646 542.606 616.25 539.053 616.25C535.49 616.25 533.419 615.641 532.216 614.426C531.013 613.212 530.553 611.268 530.553 608.25V608.111L530.481 607.993C529.772 606.81 529.498 605.724 529.567 604.738C529.636 603.754 530.051 602.823 530.806 601.952C532.33 600.193 535.21 598.726 539.174 597.735C542.97 596.786 545.898 598.203 547.66 600.435C549.445 602.695 550.011 605.758 549.088 608.064Z" fill="#5C1E11" stroke="#4F1001"/>
<path d="M615.053 566.75C615.053 568.785 613.813 571.295 611.946 573.318C610.077 575.342 607.701 576.75 605.553 576.75C603.167 576.75 602.037 576.6 601.233 575.672C600.812 575.187 600.449 574.453 600.097 573.306C599.749 572.172 599.424 570.679 599.053 568.704C599.061 566.609 599.609 565.586 600.55 565.022C601.576 564.406 603.185 564.25 605.553 564.25C606.509 564.25 607.491 564.192 608.434 564.136C608.666 564.123 608.897 564.109 609.123 564.097C610.282 564.033 611.349 563.996 612.262 564.09C613.18 564.185 613.869 564.406 614.325 564.797C614.759 565.168 615.053 565.753 615.053 566.75Z" fill="#5C1E11" stroke="#4F1001"/>
<path d="M552.053 553.25C552.053 555.851 550.941 557.832 549.213 559.176C547.473 560.53 545.088 561.25 542.553 561.25C540.019 561.25 537.766 560.531 536.156 559.187C534.556 557.852 533.553 555.871 533.553 553.25C533.553 548.048 537.535 544.75 542.553 544.75C547.605 544.75 552.053 548.078 552.053 553.25Z" fill="#5C1E11" stroke="#4F1001"/>
<path d="M624.053 648.75C624.053 650.626 622.958 652.497 621.244 653.918C619.534 655.336 617.269 656.25 615.053 656.25C613.947 656.25 613.145 656.023 612.554 655.657C611.966 655.293 611.548 654.767 611.249 654.099C610.636 652.729 610.553 650.837 610.553 648.75C610.553 646.928 611.634 645.685 613.265 644.615C614.08 644.08 615.009 643.605 615.969 643.132C616.127 643.054 616.286 642.976 616.445 642.898C617.203 642.527 617.971 642.151 618.683 641.751C620.815 641.781 622.109 642.553 622.898 643.726C623.729 644.96 624.053 646.714 624.053 648.75Z" fill="#5C1E11" stroke="#4F1001"/>
<path d="M831.554 360.216L831.552 360.233V360.25C831.552 410.837 798.26 450.75 748.052 450.75H748.028L748.003 450.752C723.174 453.235 697.812 442.557 679.458 425.261C661.103 407.963 649.825 384.114 653.048 360.317L653.055 360.262L653.051 360.207C648.582 308.068 690.238 273.25 740.552 273.25H740.596L740.639 273.242C760.442 269.777 784.044 278.689 802.282 294.936C820.512 311.174 833.291 334.658 831.554 360.216Z" fill="#AC5301" stroke="#4F1001"/>
<path d="M690.553 329.75C690.553 333.198 688.712 337.847 685.985 341.651C684.627 343.545 683.066 345.205 681.437 346.386C679.823 347.556 678.175 348.234 676.607 348.25C674.481 347.759 671.468 346.002 668.972 343.466C666.457 340.912 664.553 337.656 664.553 334.25C664.553 327.364 669.888 321.808 676.449 321.75C677.616 322.251 679.096 322.583 680.614 322.901C680.79 322.938 680.966 322.975 681.143 323.012C682.559 323.307 684.004 323.608 685.338 324.034C686.84 324.513 688.145 325.134 689.072 326.033C689.981 326.915 690.553 328.088 690.553 329.75Z" fill="#5C1E11" stroke="#4F1001"/>
<path d="M750.132 398.256L750.093 398.25H750.054C745.929 398.25 742.46 397.62 740.327 395.864C738.256 394.159 737.314 391.268 738.539 386.371L738.554 386.311V386.25C738.554 382.168 739.47 379.731 741.261 378.282C743.082 376.809 745.926 376.25 750.054 376.25C754.169 376.25 757.81 376.804 760.408 378.325C762.888 379.777 764.464 382.138 764.55 385.922C764.496 385.959 764.449 385.998 764.409 386.034C764.254 386.173 764.105 386.356 763.961 386.558C763.672 386.962 763.343 387.526 762.978 388.166C762.903 388.3 762.825 388.437 762.745 388.578C762.047 389.808 761.196 391.308 760.147 392.771C757.795 396.052 754.582 398.959 750.132 398.256Z" fill="#5C1E11" stroke="#4F1001"/>
<path d="M700.611 396.515L700.552 396.625V396.75C700.552 400.784 698.558 403.018 696.22 404.516C695.038 405.274 693.775 405.838 692.624 406.347C692.585 406.364 692.546 406.382 692.507 406.399C691.505 406.842 690.549 407.264 689.885 407.749C684.183 407.655 679.552 402.787 679.552 396.75V396.675L679.53 396.603C679.059 395.07 679.123 393.781 679.54 392.704C679.958 391.622 680.751 390.711 681.81 389.973C683.941 388.487 687.079 387.75 690.052 387.75C693.063 387.75 696.705 388.249 699.081 389.62C700.258 390.3 701.076 391.165 701.396 392.244C701.716 393.32 701.572 394.713 700.611 396.515Z" fill="#5C1E11" stroke="#4F1001"/>
<path d="M733.088 350.064L733.053 350.154V350.25C733.053 353.197 732.251 355.148 730.685 356.386C729.091 357.646 726.606 358.25 723.053 358.25C719.49 358.25 717.419 357.641 716.216 356.426C715.013 355.212 714.553 353.268 714.553 350.25V350.111L714.481 349.993C713.772 348.81 713.498 347.724 713.567 346.738C713.636 345.754 714.051 344.823 714.806 343.952C716.33 342.193 719.21 340.726 723.174 339.735C726.97 338.786 729.898 340.203 731.66 342.435C733.445 344.695 734.011 347.758 733.088 350.064Z" fill="#5C1E11" stroke="#4F1001"/>
<path d="M799.053 308.75C799.053 310.785 797.813 313.295 795.946 315.318C794.077 317.342 791.701 318.75 789.553 318.75C787.167 318.75 786.037 318.6 785.233 317.672C784.812 317.187 784.449 316.453 784.097 315.306C783.749 314.172 783.424 312.679 783.053 310.704C783.061 308.609 783.609 307.586 784.55 307.022C785.576 306.406 787.185 306.25 789.553 306.25C790.509 306.25 791.491 306.192 792.434 306.136C792.666 306.123 792.897 306.109 793.123 306.097C794.282 306.033 795.349 305.996 796.262 306.09C797.18 306.185 797.869 306.406 798.325 306.797C798.759 307.168 799.053 307.753 799.053 308.75Z" fill="#5C1E11" stroke="#4F1001"/>
<path d="M736.053 295.25C736.053 297.851 734.941 299.832 733.213 301.176C731.473 302.53 729.088 303.25 726.553 303.25C724.019 303.25 721.766 302.531 720.156 301.187C718.556 299.852 717.553 297.871 717.553 295.25C717.553 290.048 721.535 286.75 726.553 286.75C731.605 286.75 736.053 290.078 736.053 295.25Z" fill="#5C1E11" stroke="#4F1001"/>
<path d="M808.053 390.75C808.053 392.626 806.958 394.497 805.244 395.918C803.534 397.336 801.269 398.25 799.053 398.25C797.947 398.25 797.145 398.023 796.554 397.657C795.966 397.293 795.548 396.767 795.249 396.099C794.636 394.729 794.553 392.837 794.553 390.75C794.553 388.928 795.634 387.685 797.265 386.615C798.08 386.08 799.009 385.605 799.969 385.132C800.127 385.054 800.286 384.976 800.445 384.898C801.203 384.527 801.971 384.151 802.683 383.751C804.815 383.781 806.109 384.553 806.898 385.726C807.729 386.96 808.053 388.714 808.053 390.75Z" fill="#5C1E11" stroke="#4F1001"/>
<path d="M831.554 876.216L831.552 876.233V876.25C831.552 926.837 798.26 966.75 748.052 966.75H748.028L748.003 966.752C723.174 969.235 697.812 958.557 679.458 941.261C661.103 923.963 649.825 900.114 653.048 876.317L653.055 876.262L653.051 876.207C648.582 824.068 690.238 789.25 740.552 789.25H740.596L740.639 789.242C760.442 785.777 784.044 794.689 802.282 810.936C820.512 827.174 833.291 850.658 831.554 876.216Z" fill="#AC5301" stroke="#4F1001"/>
<path d="M690.553 845.75C690.553 849.198 688.712 853.847 685.985 857.651C684.627 859.545 683.066 861.205 681.437 862.386C679.823 863.556 678.175 864.234 676.607 864.25C674.481 863.759 671.468 862.002 668.972 859.466C666.457 856.912 664.553 853.656 664.553 850.25C664.553 843.364 669.888 837.808 676.449 837.75C677.616 838.251 679.096 838.583 680.614 838.901C680.79 838.938 680.966 838.975 681.143 839.012C682.559 839.307 684.004 839.608 685.338 840.034C686.84 840.513 688.145 841.134 689.072 842.033C689.981 842.915 690.553 844.088 690.553 845.75Z" fill="#5C1E11" stroke="#4F1001"/>
<path d="M750.132 914.256L750.093 914.25H750.054C745.929 914.25 742.46 913.62 740.327 911.864C738.256 910.159 737.314 907.268 738.539 902.371L738.554 902.311V902.25C738.554 898.168 739.47 895.731 741.261 894.282C743.082 892.809 745.926 892.25 750.054 892.25C754.169 892.25 757.81 892.804 760.408 894.325C762.888 895.777 764.464 898.138 764.55 901.922C764.496 901.959 764.449 901.998 764.409 902.034C764.254 902.173 764.105 902.356 763.961 902.558C763.672 902.962 763.343 903.526 762.978 904.166C762.903 904.3 762.825 904.437 762.745 904.578C762.047 905.808 761.196 907.308 760.147 908.771C757.795 912.052 754.582 914.959 750.132 914.256Z" fill="#5C1E11" stroke="#4F1001"/>
<path d="M700.611 912.515L700.552 912.625V912.75C700.552 916.784 698.558 919.018 696.22 920.516C695.038 921.274 693.775 921.838 692.624 922.347C692.585 922.364 692.546 922.382 692.507 922.399C691.505 922.842 690.549 923.264 689.885 923.749C684.183 923.655 679.552 918.787 679.552 912.75V912.675L679.53 912.603C679.059 911.07 679.123 909.781 679.54 908.704C679.958 907.622 680.751 906.711 681.81 905.973C683.941 904.487 687.079 903.75 690.052 903.75C693.063 903.75 696.705 904.249 699.081 905.62C700.258 906.3 701.076 907.165 701.396 908.244C701.716 909.32 701.572 910.713 700.611 912.515Z" fill="#5C1E11" stroke="#4F1001"/>
<path d="M733.088 866.064L733.053 866.154V866.25C733.053 869.197 732.251 871.148 730.685 872.386C729.091 873.646 726.606 874.25 723.053 874.25C719.49 874.25 717.419 873.641 716.216 872.426C715.013 871.212 714.553 869.268 714.553 866.25V866.111L714.481 865.993C713.772 864.81 713.498 863.724 713.567 862.738C713.636 861.754 714.051 860.823 714.806 859.952C716.33 858.193 719.21 856.726 723.174 855.735C726.97 854.786 729.898 856.203 731.66 858.435C733.445 860.695 734.011 863.758 733.088 866.064Z" fill="#5C1E11" stroke="#4F1001"/>
<path d="M799.053 824.75C799.053 826.785 797.813 829.295 795.946 831.318C794.077 833.342 791.701 834.75 789.553 834.75C787.167 834.75 786.037 834.6 785.233 833.672C784.812 833.187 784.449 832.453 784.097 831.306C783.749 830.172 783.424 828.679 783.053 826.704C783.061 824.609 783.609 823.586 784.55 823.022C785.576 822.406 787.185 822.25 789.553 822.25C790.509 822.25 791.491 822.192 792.434 822.136C792.666 822.123 792.897 822.109 793.123 822.097C794.282 822.033 795.349 821.996 796.262 822.09C797.18 822.185 797.869 822.406 798.325 822.797C798.759 823.168 799.053 823.753 799.053 824.75Z" fill="#5C1E11" stroke="#4F1001"/>
<path d="M736.053 811.25C736.053 813.851 734.941 815.832 733.213 817.176C731.473 818.53 729.088 819.25 726.553 819.25C724.019 819.25 721.766 818.531 720.156 817.187C718.556 815.852 717.553 813.871 717.553 811.25C717.553 806.048 721.535 802.75 726.553 802.75C731.605 802.75 736.053 806.078 736.053 811.25Z" fill="#5C1E11" stroke="#4F1001"/>
<path d="M808.053 906.75C808.053 908.626 806.958 910.497 805.244 911.918C803.534 913.336 801.269 914.25 799.053 914.25C797.947 914.25 797.145 914.023 796.554 913.657C795.966 913.293 795.548 912.767 795.249 912.099C794.636 910.729 794.553 908.837 794.553 906.75C794.553 904.928 795.634 903.685 797.265 902.615C798.08 902.08 799.009 901.605 799.969 901.132C800.127 901.054 800.286 900.976 800.445 900.898C801.203 900.527 801.971 900.151 802.683 899.751C804.815 899.781 806.109 900.553 806.898 901.726C807.729 902.96 808.053 904.714 808.053 906.75Z" fill="#5C1E11" stroke="#4F1001"/>
<path d="M1050.55 105.216L1050.55 105.233V105.25C1050.55 155.837 1017.26 195.75 967.052 195.75H967.028L967.003 195.752C942.174 198.235 916.812 187.557 898.458 170.261C880.103 152.963 868.825 129.114 872.048 105.317L872.055 105.262L872.051 105.207C867.582 53.0677 909.238 18.2499 959.552 18.2499H959.596L959.639 18.2424C979.442 14.7767 1003.04 23.6893 1021.28 39.9357C1039.51 56.174 1052.29 79.6584 1050.55 105.216Z" fill="#AC5301" stroke="#4F1001"/>
<path d="M909.553 74.7499C909.553 78.198 907.712 82.8471 904.985 86.6509C903.627 88.5453 902.066 90.2047 900.437 91.386C898.823 92.5562 897.175 93.2342 895.607 93.2496C893.481 92.759 890.468 91.0016 887.972 88.4665C885.457 85.9122 883.553 82.6563 883.553 79.2499C883.553 72.3638 888.888 66.8081 895.449 66.7503C896.616 67.251 898.096 67.5828 899.614 67.9014C899.79 67.9383 899.966 67.9751 900.143 68.0119C901.559 68.3069 903.004 68.6079 904.338 69.0338C905.84 69.5132 907.145 70.1345 908.072 71.033C908.981 71.9145 909.553 73.088 909.553 74.7499Z" fill="#5C1E11" stroke="#4F1001"/>
<path d="M969.132 143.256L969.093 143.25H969.054C964.929 143.25 961.46 142.62 959.327 140.864C957.256 139.159 956.314 136.268 957.539 131.371L957.554 131.311V131.25C957.554 127.168 958.47 124.731 960.261 123.282C962.082 121.809 964.926 121.25 969.054 121.25C973.169 121.25 976.81 121.804 979.408 123.325C981.888 124.777 983.464 127.138 983.55 130.922C983.496 130.959 983.449 130.998 983.409 131.034C983.254 131.173 983.105 131.356 982.961 131.558C982.672 131.962 982.343 132.526 981.978 133.166C981.903 133.3 981.825 133.437 981.745 133.578C981.047 134.808 980.196 136.308 979.147 137.771C976.795 141.052 973.582 143.959 969.132 143.256Z" fill="#5C1E11" stroke="#4F1001"/>
<path d="M919.611 141.515L919.552 141.625V141.75C919.552 145.784 917.558 148.018 915.22 149.516C914.038 150.274 912.775 150.838 911.624 151.347C911.585 151.364 911.546 151.382 911.507 151.399C910.505 151.842 909.549 152.264 908.885 152.749C903.183 152.655 898.552 147.787 898.552 141.75V141.675L898.53 141.603C898.059 140.07 898.123 138.781 898.54 137.704C898.958 136.622 899.751 135.711 900.81 134.973C902.941 133.487 906.079 132.75 909.052 132.75C912.063 132.75 915.705 133.249 918.081 134.62C919.258 135.3 920.076 136.165 920.396 137.244C920.716 138.32 920.572 139.713 919.611 141.515Z" fill="#5C1E11" stroke="#4F1001"/>
<path d="M952.088 95.0642L952.053 95.1536V95.2499C952.053 98.1967 951.251 100.148 949.685 101.386C948.091 102.646 945.606 103.25 942.053 103.25C938.49 103.25 936.419 102.641 935.216 101.426C934.013 100.212 933.553 98.2682 933.553 95.2499V95.1114L933.481 94.9926C932.772 93.8103 932.498 92.7238 932.567 91.7381C932.636 90.7545 933.051 89.8226 933.806 88.9524C935.33 87.193 938.21 85.726 942.174 84.735C945.97 83.786 948.898 85.203 950.66 87.4347C952.445 89.6948 953.011 92.7584 952.088 95.0642Z" fill="#5C1E11" stroke="#4F1001"/>
<path d="M1018.05 53.7499C1018.05 55.7855 1016.81 58.2947 1014.95 60.3177C1013.08 62.342 1010.7 63.7499 1008.55 63.7499C1006.17 63.7499 1005.04 63.6004 1004.23 62.6723C1003.81 62.1874 1003.45 61.4528 1003.1 60.3063C1002.75 59.172 1002.42 57.6789 1002.05 55.7038C1002.06 53.6087 1002.61 52.5858 1003.55 52.0218C1004.58 51.406 1006.19 51.2499 1008.55 51.2499C1009.51 51.2499 1010.49 51.1919 1011.43 51.1364C1011.67 51.1226 1011.9 51.1091 1012.12 51.0966C1013.28 51.0326 1014.35 50.9961 1015.26 51.0904C1016.18 51.1853 1016.87 51.4065 1017.33 51.7971C1017.76 52.1681 1018.05 52.7531 1018.05 53.7499Z" fill="#5C1E11" stroke="#4F1001"/>
<path d="M955.053 40.2499C955.053 42.8507 953.941 44.8324 952.213 46.1763C950.473 47.5298 948.088 48.2499 945.553 48.2499C943.019 48.2499 940.766 47.5309 939.156 46.1871C937.556 44.8523 936.553 42.8708 936.553 40.2499C936.553 35.0479 940.535 31.7499 945.553 31.7499C950.605 31.7499 955.053 35.0784 955.053 40.2499Z" fill="#5C1E11" stroke="#4F1001"/>
<path d="M1027.05 135.75C1027.05 137.626 1025.96 139.497 1024.24 140.918C1022.53 142.336 1020.27 143.25 1018.05 143.25C1016.95 143.25 1016.15 143.023 1015.55 142.657C1014.97 142.293 1014.55 141.767 1014.25 141.099C1013.64 139.729 1013.55 137.837 1013.55 135.75C1013.55 133.928 1014.63 132.685 1016.26 131.615C1017.08 131.08 1018.01 130.605 1018.97 130.132C1019.13 130.054 1019.29 129.976 1019.44 129.898C1020.2 129.527 1020.97 129.151 1021.68 128.751C1023.82 128.781 1025.11 129.553 1025.9 130.726C1026.73 131.96 1027.05 133.714 1027.05 135.75Z" fill="#5C1E11" stroke="#4F1001"/>
<path d="M1022.55 621.216L1022.55 621.233V621.25C1022.55 671.837 989.26 711.75 939.052 711.75H939.028L939.003 711.752C914.174 714.235 888.812 703.557 870.458 686.261C852.103 668.963 840.825 645.114 844.048 621.317L844.055 621.262L844.051 621.207C839.582 569.068 881.238 534.25 931.552 534.25H931.596L931.639 534.242C951.442 530.777 975.044 539.689 993.282 555.936C1011.51 572.174 1024.29 595.658 1022.55 621.216Z" fill="#AC5301" stroke="#4F1001"/>
<path d="M881.553 590.75C881.553 594.198 879.712 598.847 876.985 602.651C875.627 604.545 874.066 606.205 872.437 607.386C870.823 608.556 869.175 609.234 867.607 609.25C865.481 608.759 862.468 607.002 859.972 604.466C857.457 601.912 855.553 598.656 855.553 595.25C855.553 588.364 860.888 582.808 867.449 582.75C868.616 583.251 870.096 583.583 871.614 583.901C871.79 583.938 871.966 583.975 872.143 584.012C873.559 584.307 875.004 584.608 876.338 585.034C877.84 585.513 879.145 586.134 880.072 587.033C880.981 587.915 881.553 589.088 881.553 590.75Z" fill="#5C1E11" stroke="#4F1001"/>
<path d="M941.132 659.256L941.093 659.25H941.054C936.929 659.25 933.46 658.62 931.327 656.864C929.256 655.159 928.314 652.268 929.539 647.371L929.554 647.311V647.25C929.554 643.168 930.47 640.731 932.261 639.282C934.082 637.809 936.926 637.25 941.054 637.25C945.169 637.25 948.81 637.804 951.408 639.325C953.888 640.777 955.464 643.138 955.55 646.922C955.496 646.959 955.449 646.998 955.409 647.034C955.254 647.173 955.105 647.356 954.961 647.558C954.672 647.962 954.343 648.526 953.978 649.166C953.903 649.3 953.825 649.437 953.745 649.578C953.047 650.808 952.196 652.308 951.147 653.771C948.795 657.052 945.582 659.959 941.132 659.256Z" fill="#5C1E11" stroke="#4F1001"/>
<path d="M891.611 657.515L891.552 657.625V657.75C891.552 661.784 889.558 664.018 887.22 665.516C886.038 666.274 884.775 666.838 883.624 667.347C883.585 667.364 883.546 667.382 883.507 667.399C882.505 667.842 881.549 668.264 880.885 668.749C875.183 668.655 870.552 663.787 870.552 657.75V657.675L870.53 657.603C870.059 656.07 870.123 654.781 870.54 653.704C870.958 652.622 871.751 651.711 872.81 650.973C874.941 649.487 878.079 648.75 881.052 648.75C884.063 648.75 887.705 649.249 890.081 650.62C891.258 651.3 892.076 652.165 892.396 653.244C892.716 654.32 892.572 655.713 891.611 657.515Z" fill="#5C1E11" stroke="#4F1001"/>
<path d="M924.088 611.064L924.053 611.154V611.25C924.053 614.197 923.251 616.148 921.685 617.386C920.091 618.646 917.606 619.25 914.053 619.25C910.49 619.25 908.419 618.641 907.216 617.426C906.013 616.212 905.553 614.268 905.553 611.25V611.111L905.481 610.993C904.772 609.81 904.498 608.724 904.567 607.738C904.636 606.754 905.051 605.823 905.806 604.952C907.33 603.193 910.21 601.726 914.174 600.735C917.97 599.786 920.898 601.203 922.66 603.435C924.445 605.695 925.011 608.758 924.088 611.064Z" fill="#5C1E11" stroke="#4F1001"/>
<path d="M990.053 569.75C990.053 571.785 988.813 574.295 986.946 576.318C985.077 578.342 982.701 579.75 980.553 579.75C978.167 579.75 977.037 579.6 976.233 578.672C975.812 578.187 975.449 577.453 975.097 576.306C974.749 575.172 974.424 573.679 974.053 571.704C974.061 569.609 974.609 568.586 975.55 568.022C976.576 567.406 978.185 567.25 980.553 567.25C981.509 567.25 982.491 567.192 983.434 567.136C983.666 567.123 983.897 567.109 984.123 567.097C985.282 567.033 986.349 566.996 987.262 567.09C988.18 567.185 988.869 567.406 989.325 567.797C989.759 568.168 990.053 568.753 990.053 569.75Z" fill="#5C1E11" stroke="#4F1001"/>
<path d="M927.053 556.25C927.053 558.851 925.941 560.832 924.213 562.176C922.473 563.53 920.088 564.25 917.553 564.25C915.019 564.25 912.766 563.531 911.156 562.187C909.556 560.852 908.553 558.871 908.553 556.25C908.553 551.048 912.535 547.75 917.553 547.75C922.605 547.75 927.053 551.078 927.053 556.25Z" fill="#5C1E11" stroke="#4F1001"/>
<path d="M999.053 651.75C999.053 653.626 997.958 655.497 996.244 656.918C994.534 658.336 992.269 659.25 990.053 659.25C988.947 659.25 988.145 659.023 987.554 658.657C986.966 658.293 986.548 657.767 986.249 657.099C985.636 655.729 985.553 653.837 985.553 651.75C985.553 649.928 986.634 648.685 988.265 647.615C989.08 647.08 990.009 646.605 990.969 646.132C991.127 646.054 991.286 645.976 991.445 645.898C992.203 645.527 992.971 645.151 993.683 644.751C995.815 644.781 997.109 645.553 997.898 646.726C998.729 647.96 999.053 649.714 999.053 651.75Z" fill="#5C1E11" stroke="#4F1001"/>
<path d="M1232.55 363.216L1232.55 363.233V363.25C1232.55 413.837 1199.26 453.75 1149.05 453.75H1149.03L1149 453.752C1124.17 456.235 1098.81 445.557 1080.46 428.261C1062.1 410.963 1050.83 387.114 1054.05 363.317L1054.06 363.262L1054.05 363.207C1049.58 311.068 1091.24 276.25 1141.55 276.25H1141.6L1141.64 276.242C1161.44 272.777 1185.04 281.689 1203.28 297.936C1221.51 314.174 1234.29 337.658 1232.55 363.216Z" fill="#AC5301" stroke="#4F1001"/>
<path d="M1091.55 332.75C1091.55 336.198 1089.71 340.847 1086.99 344.651C1085.63 346.545 1084.07 348.205 1082.44 349.386C1080.82 350.556 1079.18 351.234 1077.61 351.25C1075.48 350.759 1072.47 349.002 1069.97 346.466C1067.46 343.912 1065.55 340.656 1065.55 337.25C1065.55 330.364 1070.89 324.808 1077.45 324.75C1078.62 325.251 1080.1 325.583 1081.61 325.901C1081.79 325.938 1081.97 325.975 1082.14 326.012C1083.56 326.307 1085 326.608 1086.34 327.034C1087.84 327.513 1089.15 328.134 1090.07 329.033C1090.98 329.915 1091.55 331.088 1091.55 332.75Z" fill="#5C1E11" stroke="#4F1001"/>
<path d="M1151.13 401.256L1151.09 401.25H1151.05C1146.93 401.25 1143.46 400.62 1141.33 398.864C1139.26 397.159 1138.31 394.268 1139.54 389.371L1139.55 389.311V389.25C1139.55 385.168 1140.47 382.731 1142.26 381.282C1144.08 379.809 1146.93 379.25 1151.05 379.25C1155.17 379.25 1158.81 379.804 1161.41 381.325C1163.89 382.777 1165.46 385.138 1165.55 388.922C1165.5 388.959 1165.45 388.998 1165.41 389.034C1165.25 389.173 1165.11 389.356 1164.96 389.558C1164.67 389.962 1164.34 390.526 1163.98 391.166C1163.9 391.3 1163.82 391.437 1163.74 391.578C1163.05 392.808 1162.2 394.308 1161.15 395.771C1158.79 399.052 1155.58 401.959 1151.13 401.256Z" fill="#5C1E11" stroke="#4F1001"/>
<path d="M1101.61 399.515L1101.55 399.625V399.75C1101.55 403.784 1099.56 406.018 1097.22 407.516C1096.04 408.274 1094.78 408.838 1093.62 409.347C1093.58 409.364 1093.55 409.382 1093.51 409.399C1092.5 409.842 1091.55 410.264 1090.89 410.749C1085.18 410.655 1080.55 405.787 1080.55 399.75V399.675L1080.53 399.603C1080.06 398.07 1080.12 396.781 1080.54 395.704C1080.96 394.622 1081.75 393.711 1082.81 392.973C1084.94 391.487 1088.08 390.75 1091.05 390.75C1094.06 390.75 1097.71 391.249 1100.08 392.62C1101.26 393.3 1102.08 394.165 1102.4 395.244C1102.72 396.32 1102.57 397.713 1101.61 399.515Z" fill="#5C1E11" stroke="#4F1001"/>
<path d="M1134.09 353.064L1134.05 353.154V353.25C1134.05 356.197 1133.25 358.148 1131.69 359.386C1130.09 360.646 1127.61 361.25 1124.05 361.25C1120.49 361.25 1118.42 360.641 1117.22 359.426C1116.01 358.212 1115.55 356.268 1115.55 353.25V353.111L1115.48 352.993C1114.77 351.81 1114.5 350.724 1114.57 349.738C1114.64 348.754 1115.05 347.823 1115.81 346.952C1117.33 345.193 1120.21 343.726 1124.17 342.735C1127.97 341.786 1130.9 343.203 1132.66 345.435C1134.44 347.695 1135.01 350.758 1134.09 353.064Z" fill="#5C1E11" stroke="#4F1001"/>
<path d="M1200.05 311.75C1200.05 313.785 1198.81 316.295 1196.95 318.318C1195.08 320.342 1192.7 321.75 1190.55 321.75C1188.17 321.75 1187.04 321.6 1186.23 320.672C1185.81 320.187 1185.45 319.453 1185.1 318.306C1184.75 317.172 1184.42 315.679 1184.05 313.704C1184.06 311.609 1184.61 310.586 1185.55 310.022C1186.58 309.406 1188.19 309.25 1190.55 309.25C1191.51 309.25 1192.49 309.192 1193.43 309.136C1193.67 309.123 1193.9 309.109 1194.12 309.097C1195.28 309.033 1196.35 308.996 1197.26 309.09C1198.18 309.185 1198.87 309.406 1199.33 309.797C1199.76 310.168 1200.05 310.753 1200.05 311.75Z" fill="#5C1E11" stroke="#4F1001"/>
<path d="M1137.05 298.25C1137.05 300.851 1135.94 302.832 1134.21 304.176C1132.47 305.53 1130.09 306.25 1127.55 306.25C1125.02 306.25 1122.77 305.531 1121.16 304.187C1119.56 302.852 1118.55 300.871 1118.55 298.25C1118.55 293.048 1122.54 289.75 1127.55 289.75C1132.61 289.75 1137.05 293.078 1137.05 298.25Z" fill="#5C1E11" stroke="#4F1001"/>
<path d="M1209.05 393.75C1209.05 395.626 1207.96 397.497 1206.24 398.918C1204.53 400.336 1202.27 401.25 1200.05 401.25C1198.95 401.25 1198.15 401.023 1197.55 400.657C1196.97 400.293 1196.55 399.767 1196.25 399.099C1195.64 397.729 1195.55 395.837 1195.55 393.75C1195.55 391.928 1196.63 390.685 1198.26 389.615C1199.08 389.08 1200.01 388.605 1200.97 388.132C1201.13 388.054 1201.29 387.976 1201.44 387.898C1202.2 387.527 1202.97 387.151 1203.68 386.751C1205.82 386.781 1207.11 387.553 1207.9 388.726C1208.73 389.96 1209.05 391.714 1209.05 393.75Z" fill="#5C1E11" stroke="#4F1001"/>
<path d="M1204.55 879.216L1204.55 879.233V879.25C1204.55 929.837 1171.26 969.75 1121.05 969.75H1121.03L1121 969.752C1096.17 972.235 1070.81 961.557 1052.46 944.261C1034.1 926.963 1022.83 903.114 1026.05 879.317L1026.06 879.262L1026.05 879.207C1021.58 827.068 1063.24 792.25 1113.55 792.25H1113.6L1113.64 792.242C1133.44 788.777 1157.04 797.689 1175.28 813.936C1193.51 830.174 1206.29 853.658 1204.55 879.216Z" fill="#AC5301" stroke="#4F1001"/>
<path d="M1063.55 848.75C1063.55 852.198 1061.71 856.847 1058.99 860.651C1057.63 862.545 1056.07 864.205 1054.44 865.386C1052.82 866.556 1051.18 867.234 1049.61 867.25C1047.48 866.759 1044.47 865.002 1041.97 862.466C1039.46 859.912 1037.55 856.656 1037.55 853.25C1037.55 846.364 1042.89 840.808 1049.45 840.75C1050.62 841.251 1052.1 841.583 1053.61 841.901C1053.79 841.938 1053.97 841.975 1054.14 842.012C1055.56 842.307 1057 842.608 1058.34 843.034C1059.84 843.513 1061.15 844.134 1062.07 845.033C1062.98 845.915 1063.55 847.088 1063.55 848.75Z" fill="#5C1E11" stroke="#4F1001"/>
<path d="M1123.13 917.256L1123.09 917.25H1123.05C1118.93 917.25 1115.46 916.62 1113.33 914.864C1111.26 913.159 1110.31 910.268 1111.54 905.371L1111.55 905.311V905.25C1111.55 901.168 1112.47 898.731 1114.26 897.282C1116.08 895.809 1118.93 895.25 1123.05 895.25C1127.17 895.25 1130.81 895.804 1133.41 897.325C1135.89 898.777 1137.46 901.138 1137.55 904.922C1137.5 904.959 1137.45 904.998 1137.41 905.034C1137.25 905.173 1137.11 905.356 1136.96 905.558C1136.67 905.962 1136.34 906.526 1135.98 907.166C1135.9 907.3 1135.82 907.437 1135.74 907.578C1135.05 908.808 1134.2 910.308 1133.15 911.771C1130.79 915.052 1127.58 917.959 1123.13 917.256Z" fill="#5C1E11" stroke="#4F1001"/>
<path d="M1073.61 915.515L1073.55 915.625V915.75C1073.55 919.784 1071.56 922.018 1069.22 923.516C1068.04 924.274 1066.78 924.838 1065.62 925.347C1065.58 925.364 1065.55 925.382 1065.51 925.399C1064.5 925.842 1063.55 926.264 1062.89 926.749C1057.18 926.655 1052.55 921.787 1052.55 915.75V915.675L1052.53 915.603C1052.06 914.07 1052.12 912.781 1052.54 911.704C1052.96 910.622 1053.75 909.711 1054.81 908.973C1056.94 907.487 1060.08 906.75 1063.05 906.75C1066.06 906.75 1069.71 907.249 1072.08 908.62C1073.26 909.3 1074.08 910.165 1074.4 911.244C1074.72 912.32 1074.57 913.713 1073.61 915.515Z" fill="#5C1E11" stroke="#4F1001"/>
<path d="M1106.09 869.064L1106.05 869.154V869.25C1106.05 872.197 1105.25 874.148 1103.69 875.386C1102.09 876.646 1099.61 877.25 1096.05 877.25C1092.49 877.25 1090.42 876.641 1089.22 875.426C1088.01 874.212 1087.55 872.268 1087.55 869.25V869.111L1087.48 868.993C1086.77 867.81 1086.5 866.724 1086.57 865.738C1086.64 864.754 1087.05 863.823 1087.81 862.952C1089.33 861.193 1092.21 859.726 1096.17 858.735C1099.97 857.786 1102.9 859.203 1104.66 861.435C1106.44 863.695 1107.01 866.758 1106.09 869.064Z" fill="#5C1E11" stroke="#4F1001"/>
<path d="M1172.05 827.75C1172.05 829.785 1170.81 832.295 1168.95 834.318C1167.08 836.342 1164.7 837.75 1162.55 837.75C1160.17 837.75 1159.04 837.6 1158.23 836.672C1157.81 836.187 1157.45 835.453 1157.1 834.306C1156.75 833.172 1156.42 831.679 1156.05 829.704C1156.06 827.609 1156.61 826.586 1157.55 826.022C1158.58 825.406 1160.19 825.25 1162.55 825.25C1163.51 825.25 1164.49 825.192 1165.43 825.136C1165.67 825.123 1165.9 825.109 1166.12 825.097C1167.28 825.033 1168.35 824.996 1169.26 825.09C1170.18 825.185 1170.87 825.406 1171.33 825.797C1171.76 826.168 1172.05 826.753 1172.05 827.75Z" fill="#5C1E11" stroke="#4F1001"/>
<path d="M1109.05 814.25C1109.05 816.851 1107.94 818.832 1106.21 820.176C1104.47 821.53 1102.09 822.25 1099.55 822.25C1097.02 822.25 1094.77 821.531 1093.16 820.187C1091.56 818.852 1090.55 816.871 1090.55 814.25C1090.55 809.048 1094.54 805.75 1099.55 805.75C1104.61 805.75 1109.05 809.078 1109.05 814.25Z" fill="#5C1E11" stroke="#4F1001"/>
<path d="M1181.05 909.75C1181.05 911.626 1179.96 913.497 1178.24 914.918C1176.53 916.336 1174.27 917.25 1172.05 917.25C1170.95 917.25 1170.15 917.023 1169.55 916.657C1168.97 916.293 1168.55 915.767 1168.25 915.099C1167.64 913.729 1167.55 911.837 1167.55 909.75C1167.55 907.928 1168.63 906.685 1170.26 905.615C1171.08 905.08 1172.01 904.605 1172.97 904.132C1173.13 904.054 1173.29 903.976 1173.44 903.898C1174.2 903.527 1174.97 903.151 1175.68 902.751C1177.82 902.781 1179.11 903.553 1179.9 904.726C1180.73 905.96 1181.05 907.714 1181.05 909.75Z" fill="#5C1E11" stroke="#4F1001"/>
<path d="M1456.55 102.216L1456.55 102.233V102.25C1456.55 152.837 1423.26 192.75 1373.05 192.75H1373.03L1373 192.752C1348.17 195.235 1322.81 184.557 1304.46 167.261C1286.1 149.963 1274.83 126.114 1278.05 102.317L1278.06 102.262L1278.05 102.207C1273.58 50.0677 1315.24 15.2499 1365.55 15.2499H1365.6L1365.64 15.2424C1385.44 11.7767 1409.04 20.6893 1427.28 36.9357C1445.51 53.174 1458.29 76.6584 1456.55 102.216Z" fill="#AC5301" stroke="#4F1001"/>
<path d="M1315.55 71.7499C1315.55 75.198 1313.71 79.8471 1310.99 83.6509C1309.63 85.5453 1308.07 87.2047 1306.44 88.386C1304.82 89.5562 1303.18 90.2342 1301.61 90.2496C1299.48 89.759 1296.47 88.0016 1293.97 85.4665C1291.46 82.9122 1289.55 79.6563 1289.55 76.2499C1289.55 69.3638 1294.89 63.8081 1301.45 63.7503C1302.62 64.251 1304.1 64.5828 1305.61 64.9014C1305.79 64.9383 1305.97 64.9751 1306.14 65.0119C1307.56 65.3069 1309 65.6079 1310.34 66.0338C1311.84 66.5132 1313.15 67.1345 1314.07 68.033C1314.98 68.9145 1315.55 70.088 1315.55 71.7499Z" fill="#5C1E11" stroke="#4F1001"/>
<path d="M1375.13 140.256L1375.09 140.25H1375.05C1370.93 140.25 1367.46 139.62 1365.33 137.864C1363.26 136.159 1362.31 133.268 1363.54 128.371L1363.55 128.311V128.25C1363.55 124.168 1364.47 121.731 1366.26 120.282C1368.08 118.809 1370.93 118.25 1375.05 118.25C1379.17 118.25 1382.81 118.804 1385.41 120.325C1387.89 121.777 1389.46 124.138 1389.55 127.922C1389.5 127.959 1389.45 127.998 1389.41 128.034C1389.25 128.173 1389.11 128.356 1388.96 128.558C1388.67 128.962 1388.34 129.526 1387.98 130.166C1387.9 130.3 1387.82 130.437 1387.74 130.578C1387.05 131.808 1386.2 133.308 1385.15 134.771C1382.79 138.052 1379.58 140.959 1375.13 140.256Z" fill="#5C1E11" stroke="#4F1001"/>
<path d="M1325.61 138.515L1325.55 138.625V138.75C1325.55 142.784 1323.56 145.018 1321.22 146.516C1320.04 147.274 1318.78 147.838 1317.62 148.347C1317.58 148.364 1317.55 148.382 1317.51 148.399C1316.5 148.842 1315.55 149.264 1314.89 149.749C1309.18 149.655 1304.55 144.787 1304.55 138.75V138.675L1304.53 138.603C1304.06 137.07 1304.12 135.781 1304.54 134.704C1304.96 133.622 1305.75 132.711 1306.81 131.973C1308.94 130.487 1312.08 129.75 1315.05 129.75C1318.06 129.75 1321.71 130.249 1324.08 131.62C1325.26 132.3 1326.08 133.165 1326.4 134.244C1326.72 135.32 1326.57 136.713 1325.61 138.515Z" fill="#5C1E11" stroke="#4F1001"/>
<path d="M1358.09 92.0642L1358.05 92.1536V92.2499C1358.05 95.1967 1357.25 97.1479 1355.69 98.3858C1354.09 99.6457 1351.61 100.25 1348.05 100.25C1344.49 100.25 1342.42 99.6414 1341.22 98.4262C1340.01 97.2117 1339.55 95.2682 1339.55 92.2499V92.1114L1339.48 91.9926C1338.77 90.8103 1338.5 89.7238 1338.57 88.7381C1338.64 87.7545 1339.05 86.8226 1339.81 85.9524C1341.33 84.193 1344.21 82.726 1348.17 81.735C1351.97 80.786 1354.9 82.203 1356.66 84.4347C1358.44 86.6948 1359.01 89.7584 1358.09 92.0642Z" fill="#5C1E11" stroke="#4F1001"/>
<path d="M1424.05 50.7499C1424.05 52.7855 1422.81 55.2947 1420.95 57.3177C1419.08 59.342 1416.7 60.7499 1414.55 60.7499C1412.17 60.7499 1411.04 60.6004 1410.23 59.6723C1409.81 59.1874 1409.45 58.4528 1409.1 57.3063C1408.75 56.172 1408.42 54.6789 1408.05 52.7038C1408.06 50.6087 1408.61 49.5858 1409.55 49.0218C1410.58 48.406 1412.19 48.2499 1414.55 48.2499C1415.51 48.2499 1416.49 48.1919 1417.43 48.1364C1417.67 48.1226 1417.9 48.1091 1418.12 48.0966C1419.28 48.0326 1420.35 47.9961 1421.26 48.0904C1422.18 48.1853 1422.87 48.4065 1423.33 48.7971C1423.76 49.1681 1424.05 49.7531 1424.05 50.7499Z" fill="#5C1E11" stroke="#4F1001"/>
<path d="M1361.05 37.2499C1361.05 39.8507 1359.94 41.8324 1358.21 43.1763C1356.47 44.5298 1354.09 45.2499 1351.55 45.2499C1349.02 45.2499 1346.77 44.5309 1345.16 43.1871C1343.56 41.8523 1342.55 39.8708 1342.55 37.2499C1342.55 32.0479 1346.54 28.7499 1351.55 28.7499C1356.61 28.7499 1361.05 32.0784 1361.05 37.2499Z" fill="#5C1E11" stroke="#4F1001"/>
<path d="M1433.05 132.75C1433.05 134.626 1431.96 136.497 1430.24 137.918C1428.53 139.336 1426.27 140.25 1424.05 140.25C1422.95 140.25 1422.15 140.023 1421.55 139.657C1420.97 139.293 1420.55 138.767 1420.25 138.099C1419.64 136.729 1419.55 134.837 1419.55 132.75C1419.55 130.928 1420.63 129.685 1422.26 128.615C1423.08 128.08 1424.01 127.605 1424.97 127.132C1425.13 127.054 1425.29 126.976 1425.44 126.898C1426.2 126.527 1426.97 126.151 1427.68 125.751C1429.82 125.781 1431.11 126.553 1431.9 127.726C1432.73 128.96 1433.05 130.714 1433.05 132.75Z" fill="#5C1E11" stroke="#4F1001"/>
<path d="M1428.55 618.216L1428.55 618.233V618.25C1428.55 668.837 1395.26 708.75 1345.05 708.75H1345.03L1345 708.752C1320.17 711.235 1294.81 700.557 1276.46 683.261C1258.1 665.963 1246.83 642.114 1250.05 618.317L1250.06 618.262L1250.05 618.207C1245.58 566.068 1287.24 531.25 1337.55 531.25H1337.6L1337.64 531.242C1357.44 527.777 1381.04 536.689 1399.28 552.936C1417.51 569.174 1430.29 592.658 1428.55 618.216Z" fill="#AC5301" stroke="#4F1001"/>
<path d="M1287.55 587.75C1287.55 591.198 1285.71 595.847 1282.99 599.651C1281.63 601.545 1280.07 603.205 1278.44 604.386C1276.82 605.556 1275.18 606.234 1273.61 606.25C1271.48 605.759 1268.47 604.002 1265.97 601.466C1263.46 598.912 1261.55 595.656 1261.55 592.25C1261.55 585.364 1266.89 579.808 1273.45 579.75C1274.62 580.251 1276.1 580.583 1277.61 580.901C1277.79 580.938 1277.97 580.975 1278.14 581.012C1279.56 581.307 1281 581.608 1282.34 582.034C1283.84 582.513 1285.15 583.134 1286.07 584.033C1286.98 584.915 1287.55 586.088 1287.55 587.75Z" fill="#5C1E11" stroke="#4F1001"/>
<path d="M1347.13 656.256L1347.09 656.25H1347.05C1342.93 656.25 1339.46 655.62 1337.33 653.864C1335.26 652.159 1334.31 649.268 1335.54 644.371L1335.55 644.311V644.25C1335.55 640.168 1336.47 637.731 1338.26 636.282C1340.08 634.809 1342.93 634.25 1347.05 634.25C1351.17 634.25 1354.81 634.804 1357.41 636.325C1359.89 637.777 1361.46 640.138 1361.55 643.922C1361.5 643.959 1361.45 643.998 1361.41 644.034C1361.25 644.173 1361.11 644.356 1360.96 644.558C1360.67 644.962 1360.34 645.526 1359.98 646.166C1359.9 646.3 1359.82 646.437 1359.74 646.578C1359.05 647.808 1358.2 649.308 1357.15 650.771C1354.79 654.052 1351.58 656.959 1347.13 656.256Z" fill="#5C1E11" stroke="#4F1001"/>
<path d="M1297.61 654.515L1297.55 654.625V654.75C1297.55 658.784 1295.56 661.018 1293.22 662.516C1292.04 663.274 1290.78 663.838 1289.62 664.347C1289.58 664.364 1289.55 664.382 1289.51 664.399C1288.5 664.842 1287.55 665.264 1286.89 665.749C1281.18 665.655 1276.55 660.787 1276.55 654.75V654.675L1276.53 654.603C1276.06 653.07 1276.12 651.781 1276.54 650.704C1276.96 649.622 1277.75 648.711 1278.81 647.973C1280.94 646.487 1284.08 645.75 1287.05 645.75C1290.06 645.75 1293.71 646.249 1296.08 647.62C1297.26 648.3 1298.08 649.165 1298.4 650.244C1298.72 651.32 1298.57 652.713 1297.61 654.515Z" fill="#5C1E11" stroke="#4F1001"/>
<path d="M1330.09 608.064L1330.05 608.154V608.25C1330.05 611.197 1329.25 613.148 1327.69 614.386C1326.09 615.646 1323.61 616.25 1320.05 616.25C1316.49 616.25 1314.42 615.641 1313.22 614.426C1312.01 613.212 1311.55 611.268 1311.55 608.25V608.111L1311.48 607.993C1310.77 606.81 1310.5 605.724 1310.57 604.738C1310.64 603.754 1311.05 602.823 1311.81 601.952C1313.33 600.193 1316.21 598.726 1320.17 597.735C1323.97 596.786 1326.9 598.203 1328.66 600.435C1330.44 602.695 1331.01 605.758 1330.09 608.064Z" fill="#5C1E11" stroke="#4F1001"/>
<path d="M1396.05 566.75C1396.05 568.785 1394.81 571.295 1392.95 573.318C1391.08 575.342 1388.7 576.75 1386.55 576.75C1384.17 576.75 1383.04 576.6 1382.23 575.672C1381.81 575.187 1381.45 574.453 1381.1 573.306C1380.75 572.172 1380.42 570.679 1380.05 568.704C1380.06 566.609 1380.61 565.586 1381.55 565.022C1382.58 564.406 1384.19 564.25 1386.55 564.25C1387.51 564.25 1388.49 564.192 1389.43 564.136C1389.67 564.123 1389.9 564.109 1390.12 564.097C1391.28 564.033 1392.35 563.996 1393.26 564.09C1394.18 564.185 1394.87 564.406 1395.33 564.797C1395.76 565.168 1396.05 565.753 1396.05 566.75Z" fill="#5C1E11" stroke="#4F1001"/>
<path d="M1333.05 553.25C1333.05 555.851 1331.94 557.832 1330.21 559.176C1328.47 560.53 1326.09 561.25 1323.55 561.25C1321.02 561.25 1318.77 560.531 1317.16 559.187C1315.56 557.852 1314.55 555.871 1314.55 553.25C1314.55 548.048 1318.54 544.75 1323.55 544.75C1328.61 544.75 1333.05 548.078 1333.05 553.25Z" fill="#5C1E11" stroke="#4F1001"/>
<path d="M1405.05 648.75C1405.05 650.626 1403.96 652.497 1402.24 653.918C1400.53 655.336 1398.27 656.25 1396.05 656.25C1394.95 656.25 1394.15 656.023 1393.55 655.657C1392.97 655.293 1392.55 654.767 1392.25 654.099C1391.64 652.729 1391.55 650.837 1391.55 648.75C1391.55 646.928 1392.63 645.685 1394.26 644.615C1395.08 644.08 1396.01 643.605 1396.97 643.132C1397.13 643.054 1397.29 642.976 1397.44 642.898C1398.2 642.527 1398.97 642.151 1399.68 641.751C1401.82 641.781 1403.11 642.553 1403.9 643.726C1404.73 644.96 1405.05 646.714 1405.05 648.75Z" fill="#5C1E11" stroke="#4F1001"/>
<path d="M1638.55 360.216L1638.55 360.233V360.25C1638.55 410.837 1605.26 450.75 1555.05 450.75H1555.03L1555 450.752C1530.17 453.235 1504.81 442.557 1486.46 425.261C1468.1 407.963 1456.83 384.114 1460.05 360.317L1460.06 360.262L1460.05 360.207C1455.58 308.068 1497.24 273.25 1547.55 273.25H1547.6L1547.64 273.242C1567.44 269.777 1591.04 278.689 1609.28 294.936C1627.51 311.174 1640.29 334.658 1638.55 360.216Z" fill="#AC5301" stroke="#4F1001"/>
<path d="M1497.55 329.75C1497.55 333.198 1495.71 337.847 1492.99 341.651C1491.63 343.545 1490.07 345.205 1488.44 346.386C1486.82 347.556 1485.18 348.234 1483.61 348.25C1481.48 347.759 1478.47 346.002 1475.97 343.466C1473.46 340.912 1471.55 337.656 1471.55 334.25C1471.55 327.364 1476.89 321.808 1483.45 321.75C1484.62 322.251 1486.1 322.583 1487.61 322.901C1487.79 322.938 1487.97 322.975 1488.14 323.012C1489.56 323.307 1491 323.608 1492.34 324.034C1493.84 324.513 1495.15 325.134 1496.07 326.033C1496.98 326.915 1497.55 328.088 1497.55 329.75Z" fill="#5C1E11" stroke="#4F1001"/>
<path d="M1557.13 398.256L1557.09 398.25H1557.05C1552.93 398.25 1549.46 397.62 1547.33 395.864C1545.26 394.159 1544.31 391.268 1545.54 386.371L1545.55 386.311V386.25C1545.55 382.168 1546.47 379.731 1548.26 378.282C1550.08 376.809 1552.93 376.25 1557.05 376.25C1561.17 376.25 1564.81 376.804 1567.41 378.325C1569.89 379.777 1571.46 382.138 1571.55 385.922C1571.5 385.959 1571.45 385.998 1571.41 386.034C1571.25 386.173 1571.11 386.356 1570.96 386.558C1570.67 386.962 1570.34 387.526 1569.98 388.166C1569.9 388.3 1569.82 388.437 1569.74 388.578C1569.05 389.808 1568.2 391.308 1567.15 392.771C1564.79 396.052 1561.58 398.959 1557.13 398.256Z" fill="#5C1E11" stroke="#4F1001"/>
<path d="M1507.61 396.515L1507.55 396.625V396.75C1507.55 400.784 1505.56 403.018 1503.22 404.516C1502.04 405.274 1500.78 405.838 1499.62 406.347C1499.58 406.364 1499.55 406.382 1499.51 406.399C1498.5 406.842 1497.55 407.264 1496.89 407.749C1491.18 407.655 1486.55 402.787 1486.55 396.75V396.675L1486.53 396.603C1486.06 395.07 1486.12 393.781 1486.54 392.704C1486.96 391.622 1487.75 390.711 1488.81 389.973C1490.94 388.487 1494.08 387.75 1497.05 387.75C1500.06 387.75 1503.71 388.249 1506.08 389.62C1507.26 390.3 1508.08 391.165 1508.4 392.244C1508.72 393.32 1508.57 394.713 1507.61 396.515Z" fill="#5C1E11" stroke="#4F1001"/>
<path d="M1540.09 350.064L1540.05 350.154V350.25C1540.05 353.197 1539.25 355.148 1537.69 356.386C1536.09 357.646 1533.61 358.25 1530.05 358.25C1526.49 358.25 1524.42 357.641 1523.22 356.426C1522.01 355.212 1521.55 353.268 1521.55 350.25V350.111L1521.48 349.993C1520.77 348.81 1520.5 347.724 1520.57 346.738C1520.64 345.754 1521.05 344.823 1521.81 343.952C1523.33 342.193 1526.21 340.726 1530.17 339.735C1533.97 338.786 1536.9 340.203 1538.66 342.435C1540.44 344.695 1541.01 347.758 1540.09 350.064Z" fill="#5C1E11" stroke="#4F1001"/>
<path d="M1606.05 308.75C1606.05 310.785 1604.81 313.295 1602.95 315.318C1601.08 317.342 1598.7 318.75 1596.55 318.75C1594.17 318.75 1593.04 318.6 1592.23 317.672C1591.81 317.187 1591.45 316.453 1591.1 315.306C1590.75 314.172 1590.42 312.679 1590.05 310.704C1590.06 308.609 1590.61 307.586 1591.55 307.022C1592.58 306.406 1594.19 306.25 1596.55 306.25C1597.51 306.25 1598.49 306.192 1599.43 306.136C1599.67 306.123 1599.9 306.109 1600.12 306.097C1601.28 306.033 1602.35 305.996 1603.26 306.09C1604.18 306.185 1604.87 306.406 1605.33 306.797C1605.76 307.168 1606.05 307.753 1606.05 308.75Z" fill="#5C1E11" stroke="#4F1001"/>
<path d="M1543.05 295.25C1543.05 297.851 1541.94 299.832 1540.21 301.176C1538.47 302.53 1536.09 303.25 1533.55 303.25C1531.02 303.25 1528.77 302.531 1527.16 301.187C1525.56 299.852 1524.55 297.871 1524.55 295.25C1524.55 290.048 1528.54 286.75 1533.55 286.75C1538.61 286.75 1543.05 290.078 1543.05 295.25Z" fill="#5C1E11" stroke="#4F1001"/>
<path d="M1615.05 390.75C1615.05 392.626 1613.96 394.497 1612.24 395.918C1610.53 397.336 1608.27 398.25 1606.05 398.25C1604.95 398.25 1604.15 398.023 1603.55 397.657C1602.97 397.293 1602.55 396.767 1602.25 396.099C1601.64 394.729 1601.55 392.837 1601.55 390.75C1601.55 388.928 1602.63 387.685 1604.26 386.615C1605.08 386.08 1606.01 385.605 1606.97 385.132C1607.13 385.054 1607.29 384.976 1607.44 384.898C1608.2 384.527 1608.97 384.151 1609.68 383.751C1611.82 383.781 1613.11 384.553 1613.9 385.726C1614.73 386.96 1615.05 388.714 1615.05 390.75Z" fill="#5C1E11" stroke="#4F1001"/>
<path d="M1610.55 876.216L1610.55 876.233V876.25C1610.55 926.837 1577.26 966.75 1527.05 966.75H1527.03L1527 966.752C1502.17 969.235 1476.81 958.557 1458.46 941.261C1440.1 923.963 1428.83 900.114 1432.05 876.317L1432.06 876.262L1432.05 876.207C1427.58 824.068 1469.24 789.25 1519.55 789.25H1519.6L1519.64 789.242C1539.44 785.777 1563.04 794.689 1581.28 810.936C1599.51 827.174 1612.29 850.658 1610.55 876.216Z" fill="#AC5301" stroke="#4F1001"/>
<path d="M1469.55 845.75C1469.55 849.198 1467.71 853.847 1464.99 857.651C1463.63 859.545 1462.07 861.205 1460.44 862.386C1458.82 863.556 1457.18 864.234 1455.61 864.25C1453.48 863.759 1450.47 862.002 1447.97 859.466C1445.46 856.912 1443.55 853.656 1443.55 850.25C1443.55 843.364 1448.89 837.808 1455.45 837.75C1456.62 838.251 1458.1 838.583 1459.61 838.901C1459.79 838.938 1459.97 838.975 1460.14 839.012C1461.56 839.307 1463 839.608 1464.34 840.034C1465.84 840.513 1467.15 841.134 1468.07 842.033C1468.98 842.915 1469.55 844.088 1469.55 845.75Z" fill="#5C1E11" stroke="#4F1001"/>
<path d="M1529.13 914.256L1529.09 914.25H1529.05C1524.93 914.25 1521.46 913.62 1519.33 911.864C1517.26 910.159 1516.31 907.268 1517.54 902.371L1517.55 902.311V902.25C1517.55 898.168 1518.47 895.731 1520.26 894.282C1522.08 892.809 1524.93 892.25 1529.05 892.25C1533.17 892.25 1536.81 892.804 1539.41 894.325C1541.89 895.777 1543.46 898.138 1543.55 901.922C1543.5 901.959 1543.45 901.998 1543.41 902.034C1543.25 902.173 1543.11 902.356 1542.96 902.558C1542.67 902.962 1542.34 903.526 1541.98 904.166C1541.9 904.3 1541.82 904.437 1541.74 904.578C1541.05 905.808 1540.2 907.308 1539.15 908.771C1536.79 912.052 1533.58 914.959 1529.13 914.256Z" fill="#5C1E11" stroke="#4F1001"/>
<path d="M1479.61 912.515L1479.55 912.625V912.75C1479.55 916.784 1477.56 919.018 1475.22 920.516C1474.04 921.274 1472.78 921.838 1471.62 922.347C1471.58 922.364 1471.55 922.382 1471.51 922.399C1470.5 922.842 1469.55 923.264 1468.89 923.749C1463.18 923.655 1458.55 918.787 1458.55 912.75V912.675L1458.53 912.603C1458.06 911.07 1458.12 909.781 1458.54 908.704C1458.96 907.622 1459.75 906.711 1460.81 905.973C1462.94 904.487 1466.08 903.75 1469.05 903.75C1472.06 903.75 1475.71 904.249 1478.08 905.62C1479.26 906.3 1480.08 907.165 1480.4 908.244C1480.72 909.32 1480.57 910.713 1479.61 912.515Z" fill="#5C1E11" stroke="#4F1001"/>
<path d="M1512.09 866.064L1512.05 866.154V866.25C1512.05 869.197 1511.25 871.148 1509.69 872.386C1508.09 873.646 1505.61 874.25 1502.05 874.25C1498.49 874.25 1496.42 873.641 1495.22 872.426C1494.01 871.212 1493.55 869.268 1493.55 866.25V866.111L1493.48 865.993C1492.77 864.81 1492.5 863.724 1492.57 862.738C1492.64 861.754 1493.05 860.823 1493.81 859.952C1495.33 858.193 1498.21 856.726 1502.17 855.735C1505.97 854.786 1508.9 856.203 1510.66 858.435C1512.44 860.695 1513.01 863.758 1512.09 866.064Z" fill="#5C1E11" stroke="#4F1001"/>
<path d="M1578.05 824.75C1578.05 826.785 1576.81 829.295 1574.95 831.318C1573.08 833.342 1570.7 834.75 1568.55 834.75C1566.17 834.75 1565.04 834.6 1564.23 833.672C1563.81 833.187 1563.45 832.453 1563.1 831.306C1562.75 830.172 1562.42 828.679 1562.05 826.704C1562.06 824.609 1562.61 823.586 1563.55 823.022C1564.58 822.406 1566.19 822.25 1568.55 822.25C1569.51 822.25 1570.49 822.192 1571.43 822.136C1571.67 822.123 1571.9 822.109 1572.12 822.097C1573.28 822.033 1574.35 821.996 1575.26 822.09C1576.18 822.185 1576.87 822.406 1577.33 822.797C1577.76 823.168 1578.05 823.753 1578.05 824.75Z" fill="#5C1E11" stroke="#4F1001"/>
<path d="M1515.05 811.25C1515.05 813.851 1513.94 815.832 1512.21 817.176C1510.47 818.53 1508.09 819.25 1505.55 819.25C1503.02 819.25 1500.77 818.531 1499.16 817.187C1497.56 815.852 1496.55 813.871 1496.55 811.25C1496.55 806.048 1500.54 802.75 1505.55 802.75C1510.61 802.75 1515.05 806.078 1515.05 811.25Z" fill="#5C1E11" stroke="#4F1001"/>
<path d="M1587.05 906.75C1587.05 908.626 1585.96 910.497 1584.24 911.918C1582.53 913.336 1580.27 914.25 1578.05 914.25C1576.95 914.25 1576.15 914.023 1575.55 913.657C1574.97 913.293 1574.55 912.767 1574.25 912.099C1573.64 910.729 1573.55 908.837 1573.55 906.75C1573.55 904.928 1574.63 903.685 1576.26 902.615C1577.08 902.08 1578.01 901.605 1578.97 901.132C1579.13 901.054 1579.29 900.976 1579.44 900.898C1580.2 900.527 1580.97 900.151 1581.68 899.751C1583.82 899.781 1585.11 900.553 1585.9 901.726C1586.73 902.96 1587.05 904.714 1587.05 906.75Z" fill="#5C1E11" stroke="#4F1001"/>
<path d="M1766.55 102.216L1766.55 102.233V102.25C1766.55 152.837 1733.26 192.75 1683.05 192.75H1683.03L1683 192.752C1658.17 195.235 1632.81 184.557 1614.46 167.261C1596.1 149.963 1584.83 126.114 1588.05 102.317L1588.06 102.262L1588.05 102.207C1583.58 50.0677 1625.24 15.2499 1675.55 15.2499H1675.6L1675.64 15.2424C1695.44 11.7767 1719.04 20.6893 1737.28 36.9357C1755.51 53.174 1768.29 76.6584 1766.55 102.216Z" fill="#AC5301" stroke="#4F1001"/>
<path d="M1625.55 71.7499C1625.55 75.198 1623.71 79.8471 1620.99 83.6509C1619.63 85.5453 1618.07 87.2047 1616.44 88.386C1614.82 89.5562 1613.18 90.2342 1611.61 90.2496C1609.48 89.759 1606.47 88.0016 1603.97 85.4665C1601.46 82.9122 1599.55 79.6563 1599.55 76.2499C1599.55 69.3638 1604.89 63.8081 1611.45 63.7503C1612.62 64.251 1614.1 64.5828 1615.61 64.9014C1615.79 64.9383 1615.97 64.9751 1616.14 65.0119C1617.56 65.3069 1619 65.6079 1620.34 66.0338C1621.84 66.5132 1623.15 67.1345 1624.07 68.033C1624.98 68.9145 1625.55 70.088 1625.55 71.7499Z" fill="#5C1E11" stroke="#4F1001"/>
<path d="M1685.13 140.256L1685.09 140.25H1685.05C1680.93 140.25 1677.46 139.62 1675.33 137.864C1673.26 136.159 1672.31 133.268 1673.54 128.371L1673.55 128.311V128.25C1673.55 124.168 1674.47 121.731 1676.26 120.282C1678.08 118.809 1680.93 118.25 1685.05 118.25C1689.17 118.25 1692.81 118.804 1695.41 120.325C1697.89 121.777 1699.46 124.138 1699.55 127.922C1699.5 127.959 1699.45 127.998 1699.41 128.034C1699.25 128.173 1699.11 128.356 1698.96 128.558C1698.67 128.962 1698.34 129.526 1697.98 130.166C1697.9 130.3 1697.82 130.437 1697.74 130.578C1697.05 131.808 1696.2 133.308 1695.15 134.771C1692.79 138.052 1689.58 140.959 1685.13 140.256Z" fill="#5C1E11" stroke="#4F1001"/>
<path d="M1635.61 138.515L1635.55 138.625V138.75C1635.55 142.784 1633.56 145.018 1631.22 146.516C1630.04 147.274 1628.78 147.838 1627.62 148.347C1627.58 148.364 1627.55 148.382 1627.51 148.399C1626.5 148.842 1625.55 149.264 1624.89 149.749C1619.18 149.655 1614.55 144.787 1614.55 138.75V138.675L1614.53 138.603C1614.06 137.07 1614.12 135.781 1614.54 134.704C1614.96 133.622 1615.75 132.711 1616.81 131.973C1618.94 130.487 1622.08 129.75 1625.05 129.75C1628.06 129.75 1631.71 130.249 1634.08 131.62C1635.26 132.3 1636.08 133.165 1636.4 134.244C1636.72 135.32 1636.57 136.713 1635.61 138.515Z" fill="#5C1E11" stroke="#4F1001"/>
<path d="M1668.09 92.0642L1668.05 92.1536V92.2499C1668.05 95.1967 1667.25 97.1479 1665.69 98.3858C1664.09 99.6457 1661.61 100.25 1658.05 100.25C1654.49 100.25 1652.42 99.6414 1651.22 98.4262C1650.01 97.2117 1649.55 95.2682 1649.55 92.2499V92.1114L1649.48 91.9926C1648.77 90.8103 1648.5 89.7238 1648.57 88.7381C1648.64 87.7545 1649.05 86.8226 1649.81 85.9524C1651.33 84.193 1654.21 82.726 1658.17 81.735C1661.97 80.786 1664.9 82.203 1666.66 84.4347C1668.44 86.6948 1669.01 89.7584 1668.09 92.0642Z" fill="#5C1E11" stroke="#4F1001"/>
<path d="M1734.05 50.7499C1734.05 52.7855 1732.81 55.2947 1730.95 57.3177C1729.08 59.342 1726.7 60.7499 1724.55 60.7499C1722.17 60.7499 1721.04 60.6004 1720.23 59.6723C1719.81 59.1874 1719.45 58.4528 1719.1 57.3063C1718.75 56.172 1718.42 54.6789 1718.05 52.7038C1718.06 50.6087 1718.61 49.5858 1719.55 49.0218C1720.58 48.406 1722.19 48.2499 1724.55 48.2499C1725.51 48.2499 1726.49 48.1919 1727.43 48.1364C1727.67 48.1226 1727.9 48.1091 1728.12 48.0966C1729.28 48.0326 1730.35 47.9961 1731.26 48.0904C1732.18 48.1853 1732.87 48.4065 1733.33 48.7971C1733.76 49.1681 1734.05 49.7531 1734.05 50.7499Z" fill="#5C1E11" stroke="#4F1001"/>
<path d="M1671.05 37.2499C1671.05 39.8507 1669.94 41.8324 1668.21 43.1763C1666.47 44.5298 1664.09 45.2499 1661.55 45.2499C1659.02 45.2499 1656.77 44.5309 1655.16 43.1871C1653.56 41.8523 1652.55 39.8708 1652.55 37.2499C1652.55 32.0479 1656.54 28.7499 1661.55 28.7499C1666.61 28.7499 1671.05 32.0784 1671.05 37.2499Z" fill="#5C1E11" stroke="#4F1001"/>
<path d="M1743.05 132.75C1743.05 134.626 1741.96 136.497 1740.24 137.918C1738.53 139.336 1736.27 140.25 1734.05 140.25C1732.95 140.25 1732.15 140.023 1731.55 139.657C1730.97 139.293 1730.55 138.767 1730.25 138.099C1729.64 136.729 1729.55 134.837 1729.55 132.75C1729.55 130.928 1730.63 129.685 1732.26 128.615C1733.08 128.08 1734.01 127.605 1734.97 127.132C1735.13 127.054 1735.29 126.976 1735.44 126.898C1736.2 126.527 1736.97 126.151 1737.68 125.751C1739.82 125.781 1741.11 126.553 1741.9 127.726C1742.73 128.96 1743.05 130.714 1743.05 132.75Z" fill="#5C1E11" stroke="#4F1001"/>
<path d="M1738.55 618.216L1738.55 618.233V618.25C1738.55 668.837 1705.26 708.75 1655.05 708.75H1655.03L1655 708.752C1630.17 711.235 1604.81 700.557 1586.46 683.261C1568.1 665.963 1556.83 642.114 1560.05 618.317L1560.06 618.262L1560.05 618.207C1555.58 566.068 1597.24 531.25 1647.55 531.25H1647.6L1647.64 531.242C1667.44 527.777 1691.04 536.689 1709.28 552.936C1727.51 569.174 1740.29 592.658 1738.55 618.216Z" fill="#AC5301" stroke="#4F1001"/>
<path d="M1597.55 587.75C1597.55 591.198 1595.71 595.847 1592.99 599.651C1591.63 601.545 1590.07 603.205 1588.44 604.386C1586.82 605.556 1585.18 606.234 1583.61 606.25C1581.48 605.759 1578.47 604.002 1575.97 601.466C1573.46 598.912 1571.55 595.656 1571.55 592.25C1571.55 585.364 1576.89 579.808 1583.45 579.75C1584.62 580.251 1586.1 580.583 1587.61 580.901C1587.79 580.938 1587.97 580.975 1588.14 581.012C1589.56 581.307 1591 581.608 1592.34 582.034C1593.84 582.513 1595.15 583.134 1596.07 584.033C1596.98 584.915 1597.55 586.088 1597.55 587.75Z" fill="#5C1E11" stroke="#4F1001"/>
<path d="M1657.13 656.256L1657.09 656.25H1657.05C1652.93 656.25 1649.46 655.62 1647.33 653.864C1645.26 652.159 1644.31 649.268 1645.54 644.371L1645.55 644.311V644.25C1645.55 640.168 1646.47 637.731 1648.26 636.282C1650.08 634.809 1652.93 634.25 1657.05 634.25C1661.17 634.25 1664.81 634.804 1667.41 636.325C1669.89 637.777 1671.46 640.138 1671.55 643.922C1671.5 643.959 1671.45 643.998 1671.41 644.034C1671.25 644.173 1671.11 644.356 1670.96 644.558C1670.67 644.962 1670.34 645.526 1669.98 646.166C1669.9 646.3 1669.82 646.437 1669.74 646.578C1669.05 647.808 1668.2 649.308 1667.15 650.771C1664.79 654.052 1661.58 656.959 1657.13 656.256Z" fill="#5C1E11" stroke="#4F1001"/>
<path d="M1607.61 654.515L1607.55 654.625V654.75C1607.55 658.784 1605.56 661.018 1603.22 662.516C1602.04 663.274 1600.78 663.838 1599.62 664.347C1599.58 664.364 1599.55 664.382 1599.51 664.399C1598.5 664.842 1597.55 665.264 1596.89 665.749C1591.18 665.655 1586.55 660.787 1586.55 654.75V654.675L1586.53 654.603C1586.06 653.07 1586.12 651.781 1586.54 650.704C1586.96 649.622 1587.75 648.711 1588.81 647.973C1590.94 646.487 1594.08 645.75 1597.05 645.75C1600.06 645.75 1603.71 646.249 1606.08 647.62C1607.26 648.3 1608.08 649.165 1608.4 650.244C1608.72 651.32 1608.57 652.713 1607.61 654.515Z" fill="#5C1E11" stroke="#4F1001"/>
<path d="M1640.09 608.064L1640.05 608.154V608.25C1640.05 611.197 1639.25 613.148 1637.69 614.386C1636.09 615.646 1633.61 616.25 1630.05 616.25C1626.49 616.25 1624.42 615.641 1623.22 614.426C1622.01 613.212 1621.55 611.268 1621.55 608.25V608.111L1621.48 607.993C1620.77 606.81 1620.5 605.724 1620.57 604.738C1620.64 603.754 1621.05 602.823 1621.81 601.952C1623.33 600.193 1626.21 598.726 1630.17 597.735C1633.97 596.786 1636.9 598.203 1638.66 600.435C1640.44 602.695 1641.01 605.758 1640.09 608.064Z" fill="#5C1E11" stroke="#4F1001"/>
<path d="M1706.05 566.75C1706.05 568.785 1704.81 571.295 1702.95 573.318C1701.08 575.342 1698.7 576.75 1696.55 576.75C1694.17 576.75 1693.04 576.6 1692.23 575.672C1691.81 575.187 1691.45 574.453 1691.1 573.306C1690.75 572.172 1690.42 570.679 1690.05 568.704C1690.06 566.609 1690.61 565.586 1691.55 565.022C1692.58 564.406 1694.19 564.25 1696.55 564.25C1697.51 564.25 1698.49 564.192 1699.43 564.136C1699.67 564.123 1699.9 564.109 1700.12 564.097C1701.28 564.033 1702.35 563.996 1703.26 564.09C1704.18 564.185 1704.87 564.406 1705.33 564.797C1705.76 565.168 1706.05 565.753 1706.05 566.75Z" fill="#5C1E11" stroke="#4F1001"/>
<path d="M1643.05 553.25C1643.05 555.851 1641.94 557.832 1640.21 559.176C1638.47 560.53 1636.09 561.25 1633.55 561.25C1631.02 561.25 1628.77 560.531 1627.16 559.187C1625.56 557.852 1624.55 555.871 1624.55 553.25C1624.55 548.048 1628.54 544.75 1633.55 544.75C1638.61 544.75 1643.05 548.078 1643.05 553.25Z" fill="#5C1E11" stroke="#4F1001"/>
<path d="M1715.05 648.75C1715.05 650.626 1713.96 652.497 1712.24 653.918C1710.53 655.336 1708.27 656.25 1706.05 656.25C1704.95 656.25 1704.15 656.023 1703.55 655.657C1702.97 655.293 1702.55 654.767 1702.25 654.099C1701.64 652.729 1701.55 650.837 1701.55 648.75C1701.55 646.928 1702.63 645.685 1704.26 644.615C1705.08 644.08 1706.01 643.605 1706.97 643.132C1707.13 643.054 1707.29 642.976 1707.44 642.898C1708.2 642.527 1708.97 642.151 1709.68 641.751C1711.82 641.781 1713.11 642.553 1713.9 643.726C1714.73 644.96 1715.05 646.714 1715.05 648.75Z" fill="#5C1E11" stroke="#4F1001"/>
<path d="M1948.55 360.216L1948.55 360.233V360.25C1948.55 410.837 1915.26 450.75 1865.05 450.75H1865.03L1865 450.752C1840.17 453.235 1814.81 442.557 1796.46 425.261C1778.1 407.963 1766.83 384.114 1770.05 360.317L1770.06 360.262L1770.05 360.207C1765.58 308.068 1807.24 273.25 1857.55 273.25H1857.6L1857.64 273.242C1877.44 269.777 1901.04 278.689 1919.28 294.936C1937.51 311.174 1950.29 334.658 1948.55 360.216Z" fill="#AC5301" stroke="#4F1001"/>
<path d="M1807.55 329.75C1807.55 333.198 1805.71 337.847 1802.99 341.651C1801.63 343.545 1800.07 345.205 1798.44 346.386C1796.82 347.556 1795.18 348.234 1793.61 348.25C1791.48 347.759 1788.47 346.002 1785.97 343.466C1783.46 340.912 1781.55 337.656 1781.55 334.25C1781.55 327.364 1786.89 321.808 1793.45 321.75C1794.62 322.251 1796.1 322.583 1797.61 322.901C1797.79 322.938 1797.97 322.975 1798.14 323.012C1799.56 323.307 1801 323.608 1802.34 324.034C1803.84 324.513 1805.15 325.134 1806.07 326.033C1806.98 326.915 1807.55 328.088 1807.55 329.75Z" fill="#5C1E11" stroke="#4F1001"/>
<path d="M1867.13 398.256L1867.09 398.25H1867.05C1862.93 398.25 1859.46 397.62 1857.33 395.864C1855.26 394.159 1854.31 391.268 1855.54 386.371L1855.55 386.311V386.25C1855.55 382.168 1856.47 379.731 1858.26 378.282C1860.08 376.809 1862.93 376.25 1867.05 376.25C1871.17 376.25 1874.81 376.804 1877.41 378.325C1879.89 379.777 1881.46 382.138 1881.55 385.922C1881.5 385.959 1881.45 385.998 1881.41 386.034C1881.25 386.173 1881.11 386.356 1880.96 386.558C1880.67 386.962 1880.34 387.526 1879.98 388.166C1879.9 388.3 1879.82 388.437 1879.74 388.578C1879.05 389.808 1878.2 391.308 1877.15 392.771C1874.79 396.052 1871.58 398.959 1867.13 398.256Z" fill="#5C1E11" stroke="#4F1001"/>
<path d="M1817.61 396.515L1817.55 396.625V396.75C1817.55 400.784 1815.56 403.018 1813.22 404.516C1812.04 405.274 1810.78 405.838 1809.62 406.347C1809.58 406.364 1809.55 406.382 1809.51 406.399C1808.5 406.842 1807.55 407.264 1806.89 407.749C1801.18 407.655 1796.55 402.787 1796.55 396.75V396.675L1796.53 396.603C1796.06 395.07 1796.12 393.781 1796.54 392.704C1796.96 391.622 1797.75 390.711 1798.81 389.973C1800.94 388.487 1804.08 387.75 1807.05 387.75C1810.06 387.75 1813.71 388.249 1816.08 389.62C1817.26 390.3 1818.08 391.165 1818.4 392.244C1818.72 393.32 1818.57 394.713 1817.61 396.515Z" fill="#5C1E11" stroke="#4F1001"/>
<path d="M1850.09 350.064L1850.05 350.154V350.25C1850.05 353.197 1849.25 355.148 1847.69 356.386C1846.09 357.646 1843.61 358.25 1840.05 358.25C1836.49 358.25 1834.42 357.641 1833.22 356.426C1832.01 355.212 1831.55 353.268 1831.55 350.25V350.111L1831.48 349.993C1830.77 348.81 1830.5 347.724 1830.57 346.738C1830.64 345.754 1831.05 344.823 1831.81 343.952C1833.33 342.193 1836.21 340.726 1840.17 339.735C1843.97 338.786 1846.9 340.203 1848.66 342.435C1850.44 344.695 1851.01 347.758 1850.09 350.064Z" fill="#5C1E11" stroke="#4F1001"/>
<path d="M1916.05 308.75C1916.05 310.785 1914.81 313.295 1912.95 315.318C1911.08 317.342 1908.7 318.75 1906.55 318.75C1904.17 318.75 1903.04 318.6 1902.23 317.672C1901.81 317.187 1901.45 316.453 1901.1 315.306C1900.75 314.172 1900.42 312.679 1900.05 310.704C1900.06 308.609 1900.61 307.586 1901.55 307.022C1902.58 306.406 1904.19 306.25 1906.55 306.25C1907.51 306.25 1908.49 306.192 1909.43 306.136C1909.67 306.123 1909.9 306.109 1910.12 306.097C1911.28 306.033 1912.35 305.996 1913.26 306.09C1914.18 306.185 1914.87 306.406 1915.33 306.797C1915.76 307.168 1916.05 307.753 1916.05 308.75Z" fill="#5C1E11" stroke="#4F1001"/>
<path d="M1853.05 295.25C1853.05 297.851 1851.94 299.832 1850.21 301.176C1848.47 302.53 1846.09 303.25 1843.55 303.25C1841.02 303.25 1838.77 302.531 1837.16 301.187C1835.56 299.852 1834.55 297.871 1834.55 295.25C1834.55 290.048 1838.54 286.75 1843.55 286.75C1848.61 286.75 1853.05 290.078 1853.05 295.25Z" fill="#5C1E11" stroke="#4F1001"/>
<path d="M1920.55 876.216L1920.55 876.233V876.25C1920.55 926.837 1887.26 966.75 1837.05 966.75H1837.03L1837 966.752C1812.17 969.235 1786.81 958.557 1768.46 941.261C1750.1 923.963 1738.83 900.114 1742.05 876.317L1742.06 876.262L1742.05 876.207C1737.58 824.068 1779.24 789.25 1829.55 789.25H1829.6L1829.64 789.242C1849.44 785.777 1873.04 794.689 1891.28 810.936C1909.51 827.174 1922.29 850.658 1920.55 876.216Z" fill="#AC5301" stroke="#4F1001"/>
<path d="M1779.55 845.75C1779.55 849.198 1777.71 853.847 1774.99 857.651C1773.63 859.545 1772.07 861.205 1770.44 862.386C1768.82 863.556 1767.18 864.234 1765.61 864.25C1763.48 863.759 1760.47 862.002 1757.97 859.466C1755.46 856.912 1753.55 853.656 1753.55 850.25C1753.55 843.364 1758.89 837.808 1765.45 837.75C1766.62 838.251 1768.1 838.583 1769.61 838.901C1769.79 838.938 1769.97 838.975 1770.14 839.012C1771.56 839.307 1773 839.608 1774.34 840.034C1775.84 840.513 1777.15 841.134 1778.07 842.033C1778.98 842.915 1779.55 844.088 1779.55 845.75Z" fill="#5C1E11" stroke="#4F1001"/>
<path d="M1839.13 914.256L1839.09 914.25H1839.05C1834.93 914.25 1831.46 913.62 1829.33 911.864C1827.26 910.159 1826.31 907.268 1827.54 902.371L1827.55 902.311V902.25C1827.55 898.168 1828.47 895.731 1830.26 894.282C1832.08 892.809 1834.93 892.25 1839.05 892.25C1843.17 892.25 1846.81 892.804 1849.41 894.325C1851.89 895.777 1853.46 898.138 1853.55 901.922C1853.5 901.959 1853.45 901.998 1853.41 902.034C1853.25 902.173 1853.11 902.356 1852.96 902.558C1852.67 902.962 1852.34 903.526 1851.98 904.166C1851.9 904.3 1851.82 904.437 1851.74 904.578C1851.05 905.808 1850.2 907.308 1849.15 908.771C1846.79 912.052 1843.58 914.959 1839.13 914.256Z" fill="#5C1E11" stroke="#4F1001"/>
<path d="M1789.61 912.515L1789.55 912.625V912.75C1789.55 916.784 1787.56 919.018 1785.22 920.516C1784.04 921.274 1782.78 921.838 1781.62 922.347C1781.58 922.364 1781.55 922.382 1781.51 922.399C1780.5 922.842 1779.55 923.264 1778.89 923.749C1773.18 923.655 1768.55 918.787 1768.55 912.75V912.675L1768.53 912.603C1768.06 911.07 1768.12 909.781 1768.54 908.704C1768.96 907.622 1769.75 906.711 1770.81 905.973C1772.94 904.487 1776.08 903.75 1779.05 903.75C1782.06 903.75 1785.71 904.249 1788.08 905.62C1789.26 906.3 1790.08 907.165 1790.4 908.244C1790.72 909.32 1790.57 910.713 1789.61 912.515Z" fill="#5C1E11" stroke="#4F1001"/>
<path d="M1822.09 866.064L1822.05 866.154V866.25C1822.05 869.197 1821.25 871.148 1819.69 872.386C1818.09 873.646 1815.61 874.25 1812.05 874.25C1808.49 874.25 1806.42 873.641 1805.22 872.426C1804.01 871.212 1803.55 869.268 1803.55 866.25V866.111L1803.48 865.993C1802.77 864.81 1802.5 863.724 1802.57 862.738C1802.64 861.754 1803.05 860.823 1803.81 859.952C1805.33 858.193 1808.21 856.726 1812.17 855.735C1815.97 854.786 1818.9 856.203 1820.66 858.435C1822.44 860.695 1823.01 863.758 1822.09 866.064Z" fill="#5C1E11" stroke="#4F1001"/>
<path d="M1888.05 824.75C1888.05 826.785 1886.81 829.295 1884.95 831.318C1883.08 833.342 1880.7 834.75 1878.55 834.75C1876.17 834.75 1875.04 834.6 1874.23 833.672C1873.81 833.187 1873.45 832.453 1873.1 831.306C1872.75 830.172 1872.42 828.679 1872.05 826.704C1872.06 824.609 1872.61 823.586 1873.55 823.022C1874.58 822.406 1876.19 822.25 1878.55 822.25C1879.51 822.25 1880.49 822.192 1881.43 822.136C1881.67 822.123 1881.9 822.109 1882.12 822.097C1883.28 822.033 1884.35 821.996 1885.26 822.09C1886.18 822.185 1886.87 822.406 1887.33 822.797C1887.76 823.168 1888.05 823.753 1888.05 824.75Z" fill="#5C1E11" stroke="#4F1001"/>
<path d="M1825.05 811.25C1825.05 813.851 1823.94 815.832 1822.21 817.176C1820.47 818.53 1818.09 819.25 1815.55 819.25C1813.02 819.25 1810.77 818.531 1809.16 817.187C1807.56 815.852 1806.55 813.871 1806.55 811.25C1806.55 806.048 1810.54 802.75 1815.55 802.75C1820.61 802.75 1825.05 806.078 1825.05 811.25Z" fill="#5C1E11" stroke="#4F1001"/>
<path d="M1897.05 906.75C1897.05 908.626 1895.96 910.497 1894.24 911.918C1892.53 913.336 1890.27 914.25 1888.05 914.25C1886.95 914.25 1886.15 914.023 1885.55 913.657C1884.97 913.293 1884.55 912.767 1884.25 912.099C1883.64 910.729 1883.55 908.837 1883.55 906.75C1883.55 904.928 1884.63 903.685 1886.26 902.615C1887.08 902.08 1888.01 901.605 1888.97 901.132C1889.13 901.054 1889.29 900.976 1889.44 900.898C1890.2 900.527 1890.97 900.151 1891.68 899.751C1893.82 899.781 1895.11 900.553 1895.9 901.726C1896.73 902.96 1897.05 904.714 1897.05 906.75Z" fill="#5C1E11" stroke="#4F1001"/>
</g>
<defs>
<clipPath id="clip0">
<rect width="1900" height="1024" fill="white"/>
</clipPath>
</defs>
</svg>
